<svg xmlns="http://www.w3.org/2000/svg" width="66" height="24" fill="none" viewBox="0 0 66 24"><path fill="#fff" d="M20.966 7.457c2.708 0 4.835 2.123 4.835 5.017s-2.127 5.017-4.835 5.017c-1.296 0-2.476-.425-3.114-1.216v4.88h-2.515V7.652h2.515v1.157c.638-.849 1.857-1.35 3.114-1.35M6.963 3.6c3.849 0 6.963 3.106 6.963 6.945s-3.133 6.947-6.963 6.947S0 14.365 0 10.545 3.133 3.6 6.963 3.6M31.72 7.457c3.017 0 4.855 2.2 4.855 4.824v.984h-7.311c.232 1.293 1.218 2.2 2.514 2.2 1.044 0 1.914-.502 2.224-1.216h2.457c-.503 1.717-2.128 3.242-4.661 3.242-3.095 0-4.99-2.142-4.99-5.017s2.165-5.016 4.912-5.017m11.547 0c2.204 0 3.674 1.583 3.674 3.975v5.865h-2.514v-5.46c0-1.292-.658-2.218-1.876-2.218-1.315 0-2.128.984-2.128 2.489v5.19h-2.514V7.65h2.514v1.138c.541-.83 1.722-1.332 2.844-1.332m18.605 9.84h-2.727l-1.16-2.952h-6.228l-1.16 2.952h-2.69L53.382 3.79h3.056zM65.45 3.791v13.506h-2.553V3.791zM20.54 9.638c-1.431 0-2.708 1.119-2.708 2.836s1.277 2.836 2.708 2.836 2.708-1.119 2.708-2.836-1.277-2.836-2.708-2.836M6.963 6.09c-2.379 0-4.294 1.948-4.294 4.456s1.915 4.457 4.294 4.457 4.294-1.949 4.294-4.457S9.342 6.09 6.963 6.09m45.664 6.018h4.468L54.87 6.455zM31.778 9.484c-1.218 0-2.224.79-2.495 2.006h4.894c-.117-1.158-1.103-2.006-2.399-2.006"/></svg>