<svg width="150" height="150" viewBox="0 0 150 150" fill="none" xmlns="http://www.w3.org/2000/svg">
<g style="mix-blend-mode:multiply">
<g clip-path="url(#clip0_3800_25248)">
<path d="M71.8075 92.1493L62.5281 96.6267L59.6336 94.4302L59.9741 98.1473L51.546 101.864V101.949L42.6922 105.919L42.0111 105.835L40.649 107.187L31.4547 111.411L16.897 112.424L10.8526 107.862L6 53.0353L11.3634 47.2908L24.4738 54.4715L29.752 58.3575L30.3479 58.9489L38.6058 63.4263L45.2461 58.2731L49.3325 61.3143L48.7366 54.7249L59.3782 46.6149V46.5304L63.3794 43.4892L71.8075 51.0078L71.8927 52.0216L78.533 57.9352L83.9815 55.5697L85.2585 58.6955L85.8544 54.8094L96.5811 50.0786L96.6663 51.5147L99.6459 48.3045L111.735 43.6581L113.608 45.0098L115.481 41.7996L126.207 37.3222L126.292 37.1532L137.87 32.1689L144 102.371L128.165 103.807L118.716 101.104L110.032 98.4008L109.777 96.2888L107.052 97.3025L97.2622 94.7682L95.1339 93.2475L94.6231 93.6699L83.2153 90.1218L82.6194 88.9391L82.4491 89.7839L78.7033 88.9391L74.021 91.22L73.7656 90.1218L71.8075 92.1493Z" fill="black"/>
<path d="M81.768 81.5894L78.7883 80.9136L74.4466 83.0256L71.9777 54.556L78.1073 60.0472L82.9598 57.9352L88.0678 70.1002L89.2597 72.9725L89.6002 73.8173L90.3664 75.5069L90.111 74.2397L89.7705 72.888L89.0894 69.9313L87.8975 55.9922L94.9635 52.8664L97.9432 86.4892L86.3652 82.9411L82.3639 74.5776C82.2788 74.3242 82.1085 74.1552 81.1721 71.6208L80.5761 70.1002L79.9802 68.5796L80.3207 69.9313L80.6613 71.7053C81.2572 74.3242 81.3423 74.5776 81.3423 74.8311L81.768 81.5894ZM39.6273 79.7309L42.7773 78.5482L42.2665 72.4656L38.9463 71.5364L39.6273 79.7309ZM41.33 98.9077L33.4127 102.456L29.6668 60.723L38.6909 65.7073L45.2461 60.6385L49.7581 63.9332L51.0351 78.0413L47.9703 81.4205L51.5459 84.0393L52.3972 93.8389L44.4799 97.3026L43.3732 84.7996L40.2233 86.1513L41.33 98.9077ZM104.243 88.8546L99.731 85.4755L96.9216 53.9647L100.753 49.9097L111.479 45.7702L115.991 49.0649L117.013 60.9764L108.925 62.666L108.074 52.9509L105.179 54.3026L107.819 84.0393L110.968 85.0531L110.117 75.169L118.205 73.4794L119.482 87.7564L115.651 91.8114L104.243 88.8546ZM130.379 96.4578L121.951 93.9234L117.439 42.9823L125.356 39.6032L127.654 66.0452L130.634 65.7918L128.25 38.2515L136.168 34.7878L141.872 99.668L133.443 97.2181L131.315 72.9725L128.336 73.226L130.379 96.4578ZM17.1523 110.312L12.6403 106.933L7.95801 53.7112L11.789 49.6562L23.4521 55.9922L27.9642 59.2869L29.156 72.8036L21.0684 74.4931L20.0468 62.4971L16.8969 60.723L20.4725 101.104L23.367 99.4146L22.3454 88.6012L30.433 86.9116L31.71 101.273L27.879 105.328L17.1523 110.312ZM57.9309 90.8821L53.504 87.503L50.6946 55.6542L58.4417 49.7407L61.251 81.4205L64.3158 79.7309L61.3362 47.3753L63.2091 45.9391L69.9346 51.9372L72.5737 81.5894L68.8278 85.6444L57.9309 90.8821Z" fill="white"/>
<path d="M59.889 98.0629L59.6336 94.5993C59.6336 94.5993 58.612 93.0786 58.5269 91.9804C58.3566 90.3753 58.612 88.7702 59.6336 88.0944C61.9322 86.4892 65.4226 86.9116 69.5941 85.4755C73.1697 84.2928 76.575 81.6739 81.087 81.167C85.8544 80.6602 90.7921 84.6307 97.773 87.9254C100.497 89.2771 102.54 90.2063 104.243 92.9097C105.861 95.613 106.116 96.3733 105.775 100.851C104.413 113.607 92.9205 117.578 87.9828 118C83.0451 118.422 77.6817 117.747 77.6817 117.747C77.6817 117.747 69.8495 118.169 64.3159 116.479C58.7823 114.705 55.5472 108.116 54.0148 106.257C53.2486 105.244 50.3541 102.54 50.3541 102.54L59.889 98.0629ZM74.5318 32.0001C81.6829 31.4087 82.5343 38.8429 82.5343 38.8429C82.5343 38.8429 82.8748 35.4637 89.0895 34.45C95.3042 33.4362 98.3689 40.6169 99.2203 42.56C100.072 44.503 100.838 47.7132 100.838 47.7132L99.3054 48.558L95.5596 52.6975C96.496 62.5816 95.3042 65.8763 90.5367 67.059C86.4504 68.0727 83.7261 65.3694 82.1937 61.061C82.2789 64.1867 81.2573 67.9038 77.5966 68.8331C72.9994 70.0158 70.1049 66.5521 69.1684 63.6798C66.8699 56.9215 65.9334 56.2456 65.5077 51.8527C64.2308 34.281 70.5306 32.4224 74.5318 32.0001ZM60.7403 45.5167L58.5269 47.7977C58.5269 47.7977 57.1647 51.1769 55.6324 53.0354C56.8242 55.7388 58.3566 59.2024 58.7823 64.5246C58.7823 69.5934 55.0364 71.8743 51.8865 71.1985C48.3961 70.4382 46.7786 67.3969 45.9272 65.7073C45.0759 64.0177 45.0759 67.3124 41.3301 68.1572C37.8396 68.9175 34.0938 66.4676 33.583 60.723C33.0722 54.9784 39.372 52.1906 42.1814 54.3871C41.3301 52.2751 44.1395 48.6425 45.3313 47.0374C46.5232 45.3478 48.3961 40.7859 52.823 40.1945C57.335 39.5187 59.2079 43.4048 60.7403 45.5167Z" fill="black"/>
<path d="M78.6181 45.2633C78.1925 44.503 77.9371 42.9824 78.1073 42.6445C78.3627 42.3065 77.6817 41.1238 77.6817 41.1238L78.533 41.5462L78.0222 38.9274L79.1289 40.3635C79.1289 40.3635 78.8735 38.2515 78.3627 37.4067C79.6397 38.0826 80.0654 39.4342 79.9803 40.1101C79.9803 40.7014 79.2141 42.7289 78.6181 45.2633ZM94.3677 39.8566C95.3893 42.391 94.7933 45.0099 94.3677 46.446V46.3616C94.2825 46.7839 93.6015 48.4735 92.665 48.9804C92.665 48.9804 93.4312 47.4598 93.3461 47.2063C93.1758 46.9529 92.4947 47.1219 92.4947 47.1219C93.4312 46.1081 93.6015 44.672 93.6015 43.4048C93.3461 41.7997 93.8569 40.1946 94.3677 39.8566ZM87.8976 65.116H87.8124C87.6422 65.0315 87.3868 64.947 87.2165 64.7781L86.5355 64.2712C86.4503 64.2712 86.5355 64.4401 86.7057 64.6936C85.0031 63.9333 83.9815 62.2437 83.3856 60.3851C82.7896 58.5266 82.7045 56.5836 82.4491 54.8095C82.0234 51.8527 81.2572 49.5718 81.2572 49.5718C81.087 48.8959 80.4059 46.8684 82.6194 41.4617C83.4707 43.9116 84.8328 45.6857 87.0463 45.4323C88.0678 45.2633 88.834 45.4323 89.3448 45.7702C89.5151 45.8547 89.6002 45.9392 89.6854 46.0236C89.6002 46.1926 89.5151 46.2771 89.5151 46.3616C89.5151 46.446 89.6854 46.3616 90.0259 46.3616L90.111 46.446C89.9408 46.615 89.8556 46.7839 89.6854 46.9529L89.5151 47.0374C89.5151 47.1219 89.8556 47.0374 90.2813 46.9529C90.0259 47.2063 89.8556 47.4598 89.7705 47.5443C89.6854 47.6287 89.9408 47.6287 90.2813 47.6287C90.0259 47.9667 89.8556 48.2201 89.8556 48.2201H90.3664C90.111 48.4735 89.9408 48.8115 89.8556 48.8959C89.7705 48.9804 90.111 48.9804 90.4516 48.8959C90.2813 49.1494 90.111 49.4873 90.111 49.5718C90.111 49.6562 90.2813 49.5718 90.6218 49.5718C90.3664 49.9097 90.1962 50.3321 90.1962 50.3321C90.1962 50.3321 90.4516 50.3321 90.707 50.2476C90.5367 50.5855 90.3664 50.839 90.3664 51.0079V51.0924C90.3664 51.0924 90.5367 51.0924 90.8772 51.0079C90.707 51.3458 90.6218 51.5993 90.5367 51.7682C90.5367 51.8527 90.7921 51.7682 91.1326 51.6838V51.7682C90.8772 52.1061 90.7921 52.3596 90.7921 52.3596H91.0475C90.8772 53.2044 90.6218 53.6268 90.6218 53.6268C91.0475 53.6268 91.4732 53.0354 92.2394 53.4578C92.0691 53.6268 91.984 53.7957 91.984 53.7957C91.984 53.7957 92.4096 53.9647 92.7501 53.9647C92.4947 54.0492 92.3245 54.2181 92.2394 54.3026C92.2394 54.3026 92.665 54.5561 93.0907 54.725C92.7501 54.8095 92.4947 54.9784 92.4096 54.9784C92.4096 54.9784 92.7501 55.2319 93.1758 55.4008C92.9204 55.4853 92.7501 55.5698 92.665 55.5698C92.5799 55.5698 93.0055 55.8232 93.4312 55.9922L92.7501 56.3301C92.7501 56.3301 93.0907 56.5836 93.4312 56.7525C93.1758 56.837 92.9204 56.9215 92.8353 56.9215C92.8353 56.9215 93.1758 57.2594 93.5163 57.5128H93.0055C92.9204 57.5128 93.2609 57.8507 93.5163 58.1887H92.9204C92.8353 58.1887 93.2609 58.5266 93.7717 58.8645C93.3461 58.8645 92.8353 59.0335 92.8353 59.0335C92.8353 59.0335 93.3461 59.5403 93.7717 59.7938H92.8353C92.7501 59.7938 93.2609 60.1317 93.7717 60.4696C93.4312 60.4696 93.0907 60.3851 92.9204 60.3851L92.7501 60.3006L92.8353 60.3851H92.7501C92.7501 60.3851 93.1758 60.8075 93.6866 61.1454C93.2609 61.061 92.8353 60.9765 92.665 60.9765C92.665 60.9765 92.9204 61.4834 93.2609 61.9058C92.9204 61.7368 92.5799 61.5678 92.4096 61.5678L92.3245 61.4834C92.3245 61.4834 92.5799 62.0747 92.9204 62.4126C92.5799 62.2437 92.1542 62.0747 91.984 61.9902C91.984 61.9902 92.2393 62.5816 92.4947 62.9195C92.1542 62.7506 91.7286 62.5816 91.5583 62.4971L91.4732 62.4126C91.4732 62.4126 91.7286 62.9195 92.0691 63.3419C91.6434 63.1729 91.2178 63.004 91.0475 62.9195C90.9624 62.9195 91.388 63.5953 91.8137 63.9333C91.4732 63.7643 90.9624 63.5109 90.707 63.4264L90.4516 63.2574C90.3664 63.2574 90.6218 63.6798 90.9624 64.1022C90.6218 64.0177 90.3664 63.8488 90.111 63.7643L89.7705 63.5953L89.8556 63.6798C89.6854 63.6798 90.0259 64.1867 90.4516 64.5246C90.0259 64.3557 89.43 64.1022 89.1746 64.0177L89.0043 63.9333C88.9192 63.9333 89.3448 64.5246 89.6854 64.947C89.2597 64.6936 88.6638 64.3557 88.4084 64.2712L88.3232 64.1867C88.3232 64.1867 88.4084 64.5246 88.6638 64.947C88.3232 64.7781 87.8125 64.5246 87.5571 64.4401L87.3868 64.3557C87.3868 64.2712 87.5571 64.6936 87.8976 65.116ZM87.2165 56.3301C88.5786 56.1612 90.3664 56.668 91.4732 57.4283C88.834 53.4578 83.641 55.5698 83.9815 58.1887C83.9815 58.1887 85.2585 56.668 87.2165 56.3301ZM78.1073 53.3733C77.256 53.3733 76.1493 53.7957 75.6385 54.894C77.256 54.725 78.4479 55.1474 79.2992 55.9922C79.2141 56.0767 79.2141 56.1612 79.2141 56.1612C79.2141 56.1612 79.3843 56.2456 79.5546 56.2456L79.7249 56.4146C79.5546 56.4991 79.4695 56.5836 79.3843 56.668L80.0654 57.006L80.1505 57.0904C79.8951 57.1749 79.7249 57.2594 79.5546 57.3439C79.5546 57.3439 79.9802 57.5973 80.4059 57.7663C80.1505 57.8507 79.9803 57.9352 79.8951 57.9352C79.8951 57.9352 80.2356 58.1887 80.6613 58.3576L79.9803 58.6955C79.9803 58.6955 80.3208 58.949 80.6613 59.1179C80.4059 59.2024 80.1505 59.2869 80.0654 59.3714C80.0654 59.3714 80.4059 59.7093 80.7464 59.9627H80.2356C80.1505 59.9627 80.491 60.3006 80.7464 60.6386H80.1505C80.0654 60.6386 80.491 60.9765 81.0018 61.3144C80.5762 61.3144 80.1505 61.4834 80.1505 61.4834C80.1505 61.4834 80.6613 61.9902 81.087 62.2437H80.1505C80.1505 62.2437 80.5762 62.5816 81.087 62.9195C80.7464 62.9195 80.491 62.835 80.2356 62.835L80.0654 62.7506L80.1505 62.835H80.0654C80.0654 62.835 80.491 63.2574 81.0018 63.5953C80.5762 63.5109 80.1505 63.4264 79.9803 63.4264C79.9803 63.4264 80.2356 63.9333 80.5762 64.3557C80.2356 64.1867 79.8951 64.0177 79.7249 64.0177H79.6397C79.6397 64.0177 79.8951 64.5246 80.2356 64.947C79.8951 64.7781 79.4695 64.6091 79.2141 64.5246C79.2141 64.5246 79.4695 65.116 79.81 65.4539C79.4695 65.2849 79.0438 65.116 78.8735 65.0315H78.7884C78.7884 65.0315 79.0438 65.5384 79.3843 65.9608C78.9587 65.7918 78.533 65.6228 78.3627 65.5384H78.2776C78.2776 65.5384 78.6181 66.1297 79.0438 66.5521C78.7033 66.3832 78.2776 66.2142 77.9371 66.0452L77.7668 65.7918C77.6817 65.7918 77.9371 66.2142 78.2776 66.6366C77.9371 66.5521 77.6817 66.3832 77.4263 66.2987L77.0857 66.0452L77.1709 66.1297C77.0006 66.1297 77.3411 66.6366 77.7668 66.9745C77.3411 66.8056 76.7452 66.5521 76.4898 66.4676H76.4047C76.3195 66.4676 76.6601 66.9745 77.0857 67.3969C76.6601 67.1435 76.0642 66.8056 75.8088 66.7211L75.6385 66.6366L75.979 67.3124C75.6385 67.1435 75.1277 66.89 74.8723 66.8056L74.702 66.7211C74.702 66.7211 74.8723 67.228 75.2128 67.5659C75.0426 67.4814 74.702 67.3124 74.4466 67.1435L73.7656 66.6366C73.7656 66.6366 73.8507 67.059 74.1061 67.3969C70.2751 66.2142 69.4238 61.2299 69.3387 60.6386C69.0833 58.78 68.8279 57.6818 67.9766 55.7388C67.4658 54.5561 66.7847 52.9509 66.5293 51.0924C66.2739 48.9804 66.5293 47.6287 66.7847 45.5168C66.955 44.2496 67.0401 41.2928 67.2955 40.1946C67.9765 43.2358 67.3806 43.9961 68.1468 44.503C68.7427 38.9274 70.19 45.5168 74.021 45.4323C74.702 45.3478 75.7236 45.0944 76.1493 45.1788C76.2344 45.1788 76.4047 45.1788 76.5749 45.2633C76.3195 45.3478 76.1493 45.3478 76.1493 45.3478L76.8303 45.8547C76.4898 45.9392 76.3195 46.1081 76.3195 46.1081C76.3195 46.1081 76.6601 46.3616 77.0006 46.5305L76.3195 46.6995C76.3195 46.6995 76.6601 46.9529 76.9155 47.2063C76.4898 47.2908 76.1493 47.3753 76.2344 47.3753L76.9155 47.8822C76.5749 47.9667 76.4047 48.1356 76.4047 48.1356C76.4047 48.1356 76.7452 48.3891 77.0857 48.558C76.9155 48.8959 76.6601 48.9804 76.6601 48.9804L77.3411 49.4873C77.0006 49.5718 76.6601 49.7407 76.7452 49.7407C76.7452 49.7407 77.1709 49.9942 77.5114 50.1631C77.256 50.3321 77.0857 50.4166 77.0857 50.4166L77.7668 50.7545C77.5114 50.9234 77.3411 51.0079 77.3411 51.0079C77.3411 51.0079 77.7668 51.1769 78.1073 51.3458C77.6817 51.4303 77.4263 51.5993 77.4263 51.5993L78.2776 51.9372C77.8519 52.1062 77.5114 52.2751 77.5114 52.2751C77.5114 52.2751 77.8519 52.5285 78.2776 52.6975L77.5965 52.8665C77.5965 52.8665 77.8519 53.1199 78.1925 53.3733H78.1073ZM71.0413 62.1592C71.1265 62.4971 71.1265 59.9627 73.7656 59.2024C75.979 58.78 77.8519 59.2869 79.7249 61.9902C78.7033 57.5128 75.1277 57.2594 73.8507 57.5973C72.9142 57.8507 70.19 58.6111 71.0413 62.1592ZM99.3054 46.5305L99.3905 46.7839C99.3905 46.7839 98.5392 47.8822 97.0919 47.9667C95.9 47.9667 95.5595 46.9529 95.5595 46.9529C96.496 45.7702 96.8365 42.7289 96.7514 41.2083C96.7514 41.2083 97.6878 42.9824 97.6878 43.8272C97.6878 44.4185 97.773 44.8409 98.1135 45.0099C97.8581 45.2633 97.6878 45.5168 97.6878 45.5168H98.2838C98.0284 45.7702 97.773 46.1081 97.6878 46.1926C97.6027 46.2771 97.9432 46.2771 98.2838 46.1926C98.0284 46.446 97.8581 46.6995 97.773 46.8684C97.6878 46.8684 98.7946 46.8684 99.3054 46.5305ZM56.9944 62.3282H56.3985L57.2498 63.004L56.3985 63.1729C56.3985 63.1729 56.9093 63.6798 57.335 63.9333H56.3134C56.3134 63.9333 56.739 64.2712 57.2498 64.6091C56.6539 64.5246 56.1431 64.5246 56.1431 64.4401C56.1431 64.4401 56.5688 64.8625 57.0796 65.2005C56.5688 65.116 55.9728 65.0315 56.058 65.0315C56.058 65.0315 56.3134 65.5384 56.739 65.9608C56.3134 65.7918 55.8026 65.5384 55.8026 65.5384C55.8026 65.5384 56.058 66.0452 56.3985 66.4676C55.9728 66.2987 55.3769 66.0452 55.3769 66.0452C55.3769 66.0452 55.6323 66.6366 55.9728 66.9745C55.4621 66.7211 54.9513 66.5521 54.9513 66.5521C54.9513 66.5521 55.2067 67.059 55.5472 67.4814C55.0364 67.228 54.4405 67.059 54.4405 67.059C54.4405 67.059 54.8661 67.7348 55.2918 68.1572C54.6959 67.9038 53.8445 67.4814 53.8445 67.4814C53.7594 67.4814 54.0148 67.9038 54.3553 68.3262L53.1635 67.8193C53.0783 67.8193 53.4189 68.3262 53.8445 68.7486C53.2486 68.4951 52.4824 68.1572 52.4824 68.1572C52.4824 68.1572 52.8229 68.7486 53.1635 69.0865C52.5675 68.7486 51.8013 68.3262 51.7162 68.3262L52.0567 69.002C51.5459 68.7486 50.7798 68.4107 50.7798 68.4107C50.7798 68.4107 50.95 68.9175 51.2906 69.2555C50.7798 69.002 49.8433 68.4107 49.8433 68.4107C49.7582 68.4107 49.9284 68.8331 50.269 69.2555C50.0987 69.171 49.8433 69.0865 49.673 68.9175C46.6934 66.89 46.3529 65.2005 44.9056 61.4834C42.4368 55.0629 42.6922 52.9509 42.8624 52.2751V52.1061C42.7773 52.0217 42.7773 51.8527 42.8624 51.6838C43.0327 50.839 43.6286 50.0786 44.3097 49.4873C45.5867 48.2201 47.4596 47.4598 48.9068 47.3753H48.992C50.7798 46.9529 52.7378 46.1926 53.4189 43.8272C53.5891 45.5168 52.5675 47.2908 51.3757 47.7132C52.9932 47.2063 53.5891 46.7839 54.0148 45.5168C54.1851 46.6995 53.1635 47.9667 52.6527 48.3046C53.7594 47.9667 54.3553 47.2908 54.3553 47.2908C54.3553 47.2908 54.2702 48.3046 53.4189 48.9804C54.8661 50.4166 52.9932 52.3596 53.1635 52.5285C53.1635 52.5285 53.504 52.6975 53.9297 52.8665C53.5891 53.0354 53.3337 53.2044 53.3337 53.2044C53.3337 53.2044 53.7594 53.3733 54.1851 53.4578C53.9297 53.6268 53.7594 53.8802 53.7594 53.8802L54.4405 54.0492C54.0999 54.2181 53.9297 54.4716 53.9297 54.4716C53.9297 54.4716 54.2702 54.5561 54.6959 54.6405C54.3553 54.8095 54.0999 54.9784 54.1851 55.0629C54.1851 54.9784 54.6107 55.1474 55.0364 55.3164C54.781 55.5698 54.5256 55.7388 54.5256 55.7388C54.5256 55.7388 55.0364 55.9077 55.4621 55.9922C55.0364 56.1612 54.781 56.4146 54.781 56.4146L55.6323 56.7525C55.2918 56.9215 55.0364 57.2594 55.0364 57.1749C55.0364 57.1749 55.3769 57.2594 55.8026 57.4283C55.6323 57.6818 55.4621 57.8507 55.4621 57.8507C55.4621 57.8507 55.8877 58.0197 56.2282 58.0197C55.8877 58.1887 55.6323 58.3576 55.7175 58.3576C55.7175 58.3576 56.1431 58.6111 56.5688 58.78C56.1431 58.949 55.8877 59.1179 55.8877 59.1179C55.8877 59.1179 56.2282 59.2869 56.6539 59.5403C56.2282 59.6248 55.9728 59.7938 55.9728 59.7938C55.9728 59.7938 56.3985 59.9627 56.8242 60.2162L56.1431 60.5541C56.1431 60.5541 56.4836 60.8075 56.8242 60.9765C56.4836 61.061 56.2282 61.2299 56.2282 61.2299C56.2282 61.2299 56.4836 61.4834 56.8242 61.7368H56.3134C56.3985 61.7368 56.739 62.0747 56.9944 62.3282ZM44.5651 53.7113C44.5651 53.7113 45.7569 52.1061 48.7366 51.8527C47.5447 51.1769 44.7353 52.1061 44.5651 53.7113ZM48.0555 64.947C48.0555 64.947 48.2258 62.5816 49.3325 61.4834C50.1838 60.723 52.227 59.8783 55.2067 61.9902C53.8445 59.7093 50.95 58.6111 48.992 60.1317C47.6299 61.1454 47.2893 63.5953 48.0555 64.947ZM44.7353 55.4853C44.7353 55.4853 46.438 53.2044 50.7798 52.782C49.0771 51.8527 44.9907 53.2044 44.7353 55.4853ZM52.3973 40.7859C53.4189 40.3635 55.6323 40.7859 56.4836 41.7997C55.0364 41.3773 53.9297 41.6307 53.4189 42.391C53.3337 41.7152 53.8445 41.1238 53.9297 41.1238C53.6743 40.8704 52.3973 40.7859 52.3973 40.7859ZM41.4152 58.6111C41.5854 58.6955 41.7557 58.78 42.0111 58.8645H41.4152C41.4152 58.8645 41.7557 59.0335 42.1814 59.2869C41.926 59.2869 41.7557 59.3714 41.7557 59.3714C41.7557 59.3714 42.0962 59.6248 42.3516 59.7938H41.8408C41.8408 59.7938 42.2665 60.0472 42.607 60.3006H42.0111L42.6922 60.6386C42.4368 60.6386 42.1814 60.723 42.1814 60.723C42.1814 60.723 42.5219 60.9765 42.8624 61.1454H42.3516L43.0327 61.6523C42.6922 61.5678 42.3516 61.6523 42.3516 61.5678C42.3516 61.5678 42.607 61.7368 42.9476 61.9902C42.607 61.9902 42.3516 62.0747 42.3516 62.0747C42.3516 62.0747 42.6922 62.4126 43.0327 62.5816C42.607 62.5816 42.3516 62.5816 42.3516 62.4971C42.3516 62.4971 42.7773 62.835 43.203 63.0885C42.6922 63.004 42.2665 62.9195 42.2665 62.9195C42.2665 62.9195 42.7773 63.4264 43.3732 63.6798C42.8624 63.5109 42.1814 63.3419 42.1814 63.3419L42.9476 64.1022C42.4368 63.9333 41.926 63.7643 41.926 63.6798C41.926 63.6798 42.1814 64.1022 42.607 64.4401C42.0962 64.2712 41.6706 64.1867 41.6706 64.1022C41.6706 64.1022 42.0111 64.5246 42.4368 64.8625C41.926 64.6936 41.33 64.4401 41.33 64.4401C41.33 64.4401 41.5854 64.8625 41.926 65.2005C41.4152 65.0315 40.8192 64.8625 40.8192 64.8625C40.8192 64.8625 41.1598 65.2849 41.5003 65.6228C40.9895 65.3694 40.3084 65.116 40.3084 65.116C40.3084 65.116 40.4787 65.4539 40.7341 65.7073C40.2233 65.5384 39.7125 65.3694 39.7125 65.2849C39.6274 65.2849 39.7977 65.5384 39.9679 65.7073C39.5423 65.5384 39.0315 65.3694 38.9463 65.2849C38.9463 65.2849 39.0315 65.5384 39.2869 65.7918C38.8612 65.6228 38.3504 65.4539 38.2653 65.3694C38.2653 65.3694 38.3504 65.5384 38.5207 65.7918C38.095 65.6228 37.6693 65.3694 37.6693 65.3694C37.6693 65.3694 37.6693 65.4539 37.7545 65.6228C35.2856 64.5246 34.0086 61.4834 34.1789 58.949C34.1789 58.949 34.3492 60.1317 34.86 60.4696C34.7748 59.1179 35.4559 58.0197 35.8815 57.6818C35.2005 59.1179 35.9667 61.061 35.9667 61.061C36.9883 58.4421 40.1382 57.4284 41.4152 57.7663C40.2233 57.8507 38.2653 58.4421 37.0734 60.1317C38.3504 59.2024 40.2233 58.6955 41.4152 58.6111ZM72.0629 98.9077C73.425 98.5698 73.8507 101.442 73.8507 101.442C73.8507 101.442 74.1912 103.216 75.0426 107.187C75.6385 110.481 75.5534 111.833 74.2764 110.228C72.9142 108.623 71.467 100.259 72.0629 98.9077ZM64.4861 94.4303C64.4861 94.6838 69.0833 94.1769 69.5941 91.8115C70.0197 89.8684 68.2319 87.334 68.0617 87.503C68.1468 87.7564 69.1684 91.0511 68.0617 92.2339C67.2955 93.0786 64.4861 94.1769 64.4861 94.4303ZM84.0666 108.792C84.0666 108.454 83.8112 108.285 83.8963 108.285C83.8963 108.285 83.8112 108.538 83.641 108.707C83.7261 108.369 83.5558 108.116 83.5558 108.2C83.5558 108.2 83.4707 108.369 83.3004 108.623C83.3856 108.285 83.3004 108.031 83.3004 108.031L82.8748 108.454C83.1302 108.116 82.9599 107.778 83.045 107.863C83.045 107.863 82.8748 108.031 82.4491 108.285C82.7896 107.947 82.7045 107.609 82.7045 107.694C82.7045 107.694 82.4491 107.863 82.0234 108.116C82.364 107.778 82.2788 107.44 82.2788 107.44C82.2788 107.44 82.0234 107.609 81.5978 107.863C81.9383 107.525 82.0234 107.187 82.0234 107.187C81.9383 107.187 81.6829 107.44 81.1721 107.609H81.087C81.6829 107.44 81.5978 106.933 81.5978 107.018C81.5978 107.018 81.3424 107.187 80.9167 107.271H80.5762C81.087 107.102 81.1721 106.764 81.1721 106.764C81.1721 106.764 80.8316 106.933 80.2356 106.933C80.6613 106.764 80.7464 106.511 80.7464 106.511C80.7464 106.511 80.4059 106.595 79.81 106.595C80.1505 106.511 80.3208 106.173 80.3208 106.173C80.3208 106.173 79.9803 106.257 79.5546 106.257C79.8951 106.173 80.0654 105.92 79.9803 105.92C79.9803 105.92 79.7249 106.004 79.2141 105.835C79.5546 105.751 79.7249 105.497 79.7249 105.497C79.7249 105.497 79.3843 105.497 78.9587 105.413L78.8735 105.328C79.2141 105.328 79.4695 105.075 79.3843 105.075C79.3843 105.075 79.0438 105.159 78.6181 104.99C78.9587 104.906 79.1289 104.737 79.1289 104.737C79.1289 104.737 78.8735 104.737 78.4479 104.652V104.568C78.8735 104.568 79.0438 104.399 79.0438 104.399C79.0438 104.399 78.7033 104.399 78.3627 104.145V104.061C78.7884 104.23 79.0438 104.061 79.0438 104.061C79.0438 104.061 78.7033 103.976 78.2776 103.554C78.6181 103.723 78.9587 103.554 78.8735 103.554C78.8735 103.554 78.6181 103.385 78.1925 103.047C78.533 103.216 78.8735 103.132 78.8735 103.047C78.8735 103.047 78.6181 102.878 78.1925 102.371C78.533 102.625 78.8735 102.54 78.8735 102.54C78.8735 102.54 78.6181 102.371 78.2776 101.864C78.6181 102.118 79.0438 102.033 78.9587 102.033C78.9587 102.033 78.7033 101.864 78.3627 101.273C78.7033 101.611 79.1289 101.527 79.0438 101.527C79.0438 101.527 78.7884 101.358 78.4479 100.851C78.7884 101.189 79.1289 101.104 79.1289 101.104C79.1289 101.104 78.8735 100.935 78.533 100.344C78.8735 100.766 79.2992 100.766 79.2992 100.682C79.2992 100.682 79.0438 100.428 78.7033 99.837C78.9587 100.344 79.4695 100.344 79.3843 100.259C79.3843 100.259 79.1289 100.006 78.9587 99.4146L78.8735 99.3301C79.1289 99.9215 79.6397 99.837 79.5546 99.837C79.5546 99.837 79.3843 99.4991 79.2141 99.0767V98.9077C79.4695 99.4146 79.8951 99.4991 79.81 99.4991C79.81 99.4991 79.5546 99.1612 79.5546 98.5698C79.7249 98.9077 80.0654 99.1612 80.0654 99.1612C80.0654 99.1612 79.8951 98.7388 79.9803 98.3164L80.0654 98.2319C80.0654 98.4853 80.1505 98.6543 80.2356 98.7388C80.491 98.2319 80.9167 97.9784 81.4275 97.894C82.4491 97.8095 83.641 98.0629 84.5774 98.5698C85.4287 98.9922 86.1949 99.668 87.0463 100.428V99.9215C87.3017 100.09 87.4719 100.175 87.4719 100.175C87.4719 100.175 87.4719 99.9215 87.1314 99.5836C87.4719 99.7525 87.6422 99.7525 87.6422 99.7525C87.6422 99.7525 87.557 99.4991 87.0463 99.1612C87.3017 99.1612 87.4719 98.9922 87.4719 99.0767C87.4719 99.0767 87.3017 98.9077 86.876 98.8232C87.1314 98.7388 87.3017 98.5698 87.3017 98.5698C87.3017 98.5698 87.0463 98.4853 86.4503 98.4008C86.876 98.4008 87.0463 98.1474 87.0463 98.1474C87.0463 98.1474 86.7909 98.1474 86.1949 97.9784C86.7057 97.9784 86.876 97.6405 86.876 97.6405C86.876 97.6405 86.6206 97.725 86.0247 97.5561C86.4503 97.4716 86.6206 97.2181 86.6206 97.2181C86.6206 97.2181 86.3652 97.3026 85.8544 97.2181C86.1949 97.0492 86.2801 96.7957 86.2801 96.7957C86.2801 96.7957 86.0247 96.8802 85.4287 96.9647C85.8544 96.7957 85.9395 96.3733 85.9395 96.4578C85.9395 96.4578 85.6841 96.6268 85.0882 96.7113C85.4287 96.4578 85.5139 96.2044 85.5139 96.2044C85.5139 96.2044 85.2585 96.3733 84.6625 96.4578C85.0882 96.2889 85.0882 95.9509 85.0882 95.9509L84.322 96.2044C84.6625 95.9509 84.6625 95.613 84.6625 95.6975C84.6625 95.6975 84.4923 95.8665 83.8963 96.0354C84.322 95.782 84.2369 95.4441 84.2369 95.4441C84.2369 95.4441 83.9815 95.613 83.4707 95.782C83.7261 95.5285 83.7261 95.2751 83.7261 95.2751C83.7261 95.2751 83.5558 95.4441 83.1302 95.613C83.4707 95.3596 83.4707 95.0217 83.3856 95.1061C83.3856 95.1061 83.2153 95.2751 82.7045 95.4441C83.045 95.1061 82.9599 94.8527 82.9599 94.8527C82.9599 94.8527 82.7896 95.0217 82.2788 95.1906C82.7896 94.6838 83.1302 93.4166 82.8748 92.7407C82.6194 93.501 82.1086 94.1769 81.768 94.5148C82.1937 93.7545 81.9383 93.4166 81.9383 93.4166C81.9383 93.4166 81.8532 93.67 81.4275 94.2614L81.3424 94.3458C81.8532 92.8252 81.4275 89.8684 80.6613 89.1926C80.8316 92.6562 80.0654 93.839 79.9803 93.9234C79.9803 93.67 79.8951 93.501 79.8951 93.501C79.8951 93.501 79.81 93.7545 79.5546 94.2614C79.5546 94.3458 79.4695 94.3458 79.4695 94.4303C79.5546 94.0924 79.3843 93.9234 79.3843 93.9234C79.3843 93.9234 79.2992 94.1769 78.9587 94.7682C79.0438 94.4303 78.8735 94.1769 78.8735 94.1769C78.8735 94.1769 78.7884 94.4303 78.533 94.9372C78.533 95.0217 78.4479 95.1062 78.3627 95.1906C78.533 94.6838 78.2776 94.4303 78.3627 94.4303C78.3627 94.4303 78.2776 94.6838 78.0222 95.1906C78.0222 95.2751 77.9371 95.3596 77.8519 95.4441H77.7668C77.9371 95.0217 77.7668 94.6837 77.7668 94.6837C77.7668 94.6837 77.6817 94.9372 77.3411 95.4441C77.256 95.5285 77.256 95.613 77.1709 95.6975C77.4263 95.2751 77.256 94.9372 77.256 94.9372C77.256 94.9372 77.1709 95.1906 76.7452 95.613C76.6601 95.6975 76.6601 95.782 76.5749 95.8665C76.8303 95.4441 76.6601 95.1061 76.6601 95.1061C76.6601 95.1061 76.5749 95.3596 76.1493 95.782L75.8939 96.0354C76.2344 95.5286 76.0642 95.1906 76.0642 95.1906C76.0642 95.1906 75.979 95.4441 75.5534 95.8665C75.4682 95.9509 75.3831 96.1199 75.2128 96.2044C75.6385 95.6975 75.3831 95.2751 75.3831 95.3596C75.3831 95.3596 75.298 95.613 74.8723 96.0354C74.7872 96.1199 74.702 96.2889 74.6169 96.3733C75.0426 95.9509 74.8723 95.5285 74.8723 95.5285C74.8723 95.5285 74.702 95.782 74.2764 96.2044L74.021 96.4578C74.2764 96.0354 74.1912 95.782 74.1912 95.782C74.1912 95.782 74.021 96.0354 73.5953 96.4578L73.425 96.6268C73.7656 96.2044 73.6804 95.8665 73.5953 95.8665C73.5953 95.8665 73.425 96.1199 72.9994 96.4578L72.8291 96.6268C73.1696 96.2044 73.0845 95.8665 73.0845 95.8665C73.0845 95.8665 72.9142 96.1199 72.4886 96.4578C72.4034 96.5423 72.3183 96.6268 72.2332 96.6268C72.5737 96.2044 72.4034 95.8665 72.4034 95.8665C72.4034 95.8665 72.2332 96.1199 71.8075 96.4578C71.7224 96.5423 71.7224 96.6268 71.6373 96.6268C71.9778 96.2889 71.8927 95.9509 71.8927 95.9509C71.8927 95.9509 71.7224 96.2044 71.2116 96.4578C71.1265 96.5423 71.0413 96.6268 70.8711 96.6268C71.2116 96.2889 71.1265 95.9509 71.1265 95.9509C71.1265 95.9509 70.9562 96.2044 70.4454 96.4578C70.3603 96.5423 70.2751 96.5423 70.19 96.6268C70.5305 96.2889 70.5305 95.9509 70.5305 95.9509C70.5305 95.9509 70.3603 96.1199 69.8495 96.4578C69.7643 96.5423 69.6792 96.5423 69.5941 96.6268C69.9346 96.2889 69.8495 95.9509 69.8495 95.9509C69.8495 95.9509 69.6792 96.2044 69.1684 96.4578L68.9981 96.6268H68.913C69.2535 96.2889 69.1684 95.9509 69.1684 95.9509C69.1684 95.9509 68.9981 96.1199 68.4873 96.4578L68.3171 96.6268C68.6576 96.2889 68.6576 95.9509 68.6576 95.9509C68.6576 95.9509 68.4873 96.1199 67.8914 96.3733C67.8063 96.4578 67.7212 96.4578 67.5509 96.5423C67.8914 96.2044 67.8914 95.9509 67.8914 95.9509C67.8914 95.9509 67.7212 96.1199 67.1252 96.3733C67.0401 96.4578 66.955 96.4578 66.8698 96.5423C67.2955 96.2889 67.2955 95.8665 67.2955 95.8665C67.2955 95.8665 67.1252 96.0354 66.5293 96.2889C66.4442 96.3733 66.2739 96.3733 66.1036 96.4578C66.5293 96.2044 66.5293 95.782 66.5293 95.8665C66.5293 95.8665 66.2739 96.0354 65.678 96.2889C65.5928 96.3733 65.4226 96.3733 65.2523 96.4578C65.678 96.2044 65.7631 95.9509 65.7631 95.9509C65.7631 95.9509 65.5077 96.1199 64.8266 96.2044H64.5712C64.6564 96.1199 64.8266 96.0354 64.8266 95.9509C63.2943 96.0354 62.2727 95.2751 61.847 94.9372C60.3146 93.67 59.5484 91.9804 59.5484 90.9667C59.6336 89.5305 60.6551 88.0099 62.1024 87.7564C63.6348 87.4185 68.9981 86.6582 71.2967 85.6445C73.5953 84.6307 77.9371 82.6877 80.0654 82.0963C82.0234 81.505 84.5774 81.6739 89.1746 84.4617C89.1746 84.4617 95.219 87.7564 97.6027 88.7702C98.454 89.1081 99.1351 89.7839 99.6459 90.4598C99.3905 90.3753 99.1351 90.2908 99.1351 90.3753C99.1351 90.3753 99.3054 90.7132 99.8162 91.2201C99.4756 91.0511 99.2202 91.0511 99.2202 91.0511C99.2202 91.0511 99.3905 91.3046 99.731 91.727C99.4756 91.6425 99.3054 91.727 99.3054 91.727C99.3054 91.727 99.5608 91.9804 100.072 92.3183C99.6459 92.0649 99.3054 92.1494 99.3054 92.1494L99.9864 92.8252C99.5608 92.7407 99.3054 92.8252 99.3054 92.8252C99.3054 92.8252 99.6459 93.1631 100.242 93.5855C99.731 93.2476 99.2202 93.3321 99.2202 93.3321C99.2202 93.3321 99.4756 93.67 99.9864 94.0924C99.5608 93.9234 99.2202 94.0079 99.2202 94.0079C99.2202 94.0079 99.4756 94.3458 99.9864 94.6837C99.4756 94.5148 99.1351 94.5993 99.1351 94.5993C99.1351 94.5993 99.3905 94.7682 99.731 95.1061C99.3905 95.0217 99.1351 95.1061 99.1351 95.1061C99.1351 95.1061 99.3905 95.4441 99.731 95.782C99.3054 95.613 99.05 95.6975 99.05 95.6975C99.05 95.6975 99.3054 96.0354 99.8162 96.3733C99.3054 96.1199 98.9648 96.2889 99.05 96.2044C99.05 96.2044 99.3905 96.5423 99.9864 96.9647L100.242 97.2181C99.6459 96.6268 99.05 96.7957 99.05 96.7957C99.05 96.7957 99.3905 97.1336 99.9864 97.6405C99.3905 97.2181 98.9648 97.3026 98.9648 97.3026C98.9648 97.3026 99.3054 97.6405 99.8162 98.2319L99.9013 98.3164C99.3054 97.8095 98.7946 97.9784 98.7946 97.9784L99.6459 98.8232C99.1351 98.4853 98.7094 98.5698 98.7094 98.5698C98.7094 98.5698 98.9648 98.8232 99.4756 99.2456C98.9648 98.9077 98.6243 98.9922 98.6243 98.9922C98.6243 98.9922 98.9648 99.3301 99.3905 99.837C98.8797 99.4991 98.454 99.4991 98.454 99.4991C98.454 99.4991 98.7094 99.7525 99.05 100.175C98.6243 99.9215 98.2838 100.006 98.2838 100.006L98.9648 100.682C98.454 100.344 98.1135 100.428 98.1135 100.428C98.1135 100.428 98.454 100.766 98.8797 101.273C98.3689 100.851 97.9432 100.935 98.0284 100.935C98.0284 100.935 98.3689 101.358 98.7946 101.949C98.3689 101.358 97.8581 101.358 97.8581 101.358L98.2838 102.202C97.9432 101.949 97.6878 101.949 97.6878 101.949C97.6878 101.949 97.9432 102.371 98.3689 102.963C97.9432 102.456 97.5176 102.456 97.5176 102.456C97.5176 102.456 97.6878 102.878 98.0284 103.47C97.6878 102.963 97.2622 102.878 97.2622 102.878C97.2622 102.878 97.3473 103.301 97.6878 103.892C97.3473 103.47 96.9216 103.47 96.9216 103.47C96.9216 103.47 97.0068 103.808 97.2622 104.314C96.9216 103.976 96.6662 103.976 96.6662 103.976C96.6662 103.976 96.7514 104.314 96.9216 104.821C96.5811 104.483 96.3257 104.399 96.3257 104.399C96.3257 104.399 96.4109 104.821 96.5811 105.413C96.3257 104.99 95.9001 104.906 95.9852 104.906C95.9852 104.906 96.0703 105.244 96.1555 105.835C95.9001 105.328 95.5595 105.244 95.5595 105.244C95.5595 105.244 95.6447 105.582 95.7298 106.173C95.5595 105.751 95.219 105.582 95.219 105.582V106.426C95.0487 106.088 94.7933 105.92 94.7933 105.92V106.849C94.6231 106.342 94.3677 106.173 94.3677 106.173C94.3677 106.173 94.3677 106.426 94.2825 106.849C94.1974 106.426 93.942 106.257 93.942 106.257C93.942 106.257 93.8569 106.595 93.7717 107.187C93.6866 106.68 93.3461 106.511 93.3461 106.511C93.3461 106.511 93.2609 106.849 93.2609 107.356C93.1758 106.849 92.9204 106.68 92.9204 106.68C92.9204 106.68 92.8353 107.018 92.7501 107.44C92.7501 107.018 92.5799 106.764 92.5799 106.764C92.5799 106.764 92.4096 107.018 92.3245 107.356C92.3245 107.018 92.1542 106.849 92.1542 106.849C92.1542 106.849 91.9839 107.102 91.7285 107.609C91.8137 107.187 91.6434 106.849 91.6434 106.933C91.6434 106.933 91.4732 107.187 91.3029 107.525C91.3029 107.102 91.2178 106.849 91.2178 106.849C91.2178 106.849 91.0475 107.018 90.8772 107.356C90.8772 106.933 90.7921 106.68 90.7921 106.68C90.7921 106.68 90.6218 106.849 90.4516 107.187C90.5367 106.849 90.3664 106.595 90.4516 106.595C90.4516 106.595 90.2813 106.849 90.0259 107.187C90.1962 106.764 90.111 106.511 90.111 106.511L89.6002 107.018C89.7705 106.68 89.6854 106.342 89.6854 106.342C89.6854 106.342 89.43 106.511 89.0894 106.764C89.2597 106.426 89.1746 106.173 89.1746 106.173C89.1746 106.173 88.9192 106.342 88.6638 106.595C88.834 106.257 88.7489 106.004 88.834 106.004C88.834 106.004 88.6638 106.088 88.4084 106.342C88.4935 106.088 88.4935 105.835 88.4935 105.92C88.4935 105.92 88.3232 106.004 88.153 106.173C88.2381 105.92 88.2381 105.666 88.2381 105.751L87.8976 105.92C87.9827 105.666 87.9827 105.497 87.9827 105.497C87.9827 105.497 87.8976 105.582 87.7273 105.666C87.8125 105.497 87.8124 105.328 87.8124 105.328C87.8124 105.328 87.6422 105.328 87.4719 105.413L87.6422 105.244C87.6422 105.244 87.1314 105.159 86.4503 105.497C86.2801 105.582 86.1949 105.582 86.1098 105.666C85.5139 106.004 84.9179 106.68 85.0031 107.947C85.0031 107.947 85.0031 108.454 84.6625 108.707C84.6625 108.454 84.4923 108.285 84.4923 108.285C84.2369 108.369 84.2369 108.538 84.0666 108.792ZM59.6336 94.8527C60.0592 95.5285 60.6551 96.1199 61.5065 96.7113C64.7415 98.4853 67.8914 98.4853 69.3387 98.4853C69.5089 98.7388 70.0197 99.3301 70.4454 99.4146C69.9346 99.2456 69.2535 99.0767 69.2535 99.0767C69.1684 99.0767 69.8495 100.006 70.4454 100.175C69.8495 100.006 69.1684 99.9215 69.1684 99.9215C69.1684 99.9215 70.0197 100.851 70.6157 101.02C70.0197 100.851 69.1684 100.682 69.1684 100.682C69.1684 100.682 70.0197 101.611 70.6157 101.78C70.0197 101.611 69.1684 101.442 69.1684 101.442C69.1684 101.442 70.0197 102.371 70.6157 102.54C70.0197 102.371 69.2535 102.202 69.1684 102.202C69.1684 102.202 69.7643 102.963 70.3603 103.216C69.8495 103.132 69.2535 102.963 69.2535 102.963C69.2535 102.963 69.7643 103.554 70.3603 103.892C69.7643 103.723 69.2535 103.639 69.2535 103.639C69.2535 103.639 70.0197 104.483 70.7008 104.737L69.3387 104.23C69.3387 104.23 69.8495 104.821 70.4454 105.244C69.8495 104.99 69.3387 104.737 69.3387 104.737C69.3387 104.737 70.0197 105.582 70.7008 106.088L69.3387 105.413C69.3387 105.413 70.0197 106.342 70.7008 106.849C70.0197 106.511 69.4238 106.257 69.4238 106.173C69.4238 106.173 69.9346 106.849 70.5305 107.356L69.5089 106.849C69.5089 106.849 70.3603 107.947 71.0413 108.369C70.2751 108.031 69.5089 107.694 69.5089 107.609C69.4238 107.609 70.3603 108.707 71.1265 109.13C70.3603 108.792 69.5941 108.454 69.5941 108.369C69.5941 108.369 70.4454 109.383 71.1265 109.89C70.3603 109.552 69.6792 109.214 69.6792 109.214C69.5941 109.214 70.3603 110.143 71.1265 110.65C70.5305 110.566 69.8495 110.312 69.8495 110.312C69.8495 110.312 70.8711 111.411 71.7224 111.833C70.9562 111.58 70.1049 111.326 70.1049 111.242C70.1049 111.242 71.1265 112.255 71.9778 112.593C71.1265 112.34 70.1049 111.918 70.1049 111.918C70.1049 111.918 70.7008 112.593 71.467 113.016C70.8711 112.847 70.19 112.593 70.19 112.509C70.1049 112.509 70.7008 113.185 71.2967 113.607L71.2116 113.692C70.6157 113.438 70.0197 112.931 70.0197 112.931C69.9346 112.931 70.19 113.523 70.5305 114.03C70.0197 113.692 69.5089 113.1 69.5089 113.1C69.4238 113.1 69.5089 113.692 69.8495 114.198C69.4238 113.945 68.913 113.269 68.9981 113.185C68.913 113.185 68.913 113.776 69.1684 114.283C68.7427 113.945 68.4022 113.185 68.4022 113.185C68.3171 113.185 68.232 113.692 68.4022 114.198C68.1468 113.776 67.9766 113.269 67.9766 113.269C67.9766 113.269 67.8914 113.692 67.8914 114.198C67.5509 113.776 67.2955 113.354 67.2955 113.269C67.2104 113.269 67.2104 113.861 67.3806 114.367C66.955 113.945 66.6996 113.354 66.6996 113.269C66.6144 113.269 66.6144 113.776 66.6996 114.283C66.2739 113.776 65.9334 113.269 66.0185 113.185C65.9334 113.185 66.0185 113.692 66.1888 114.283C65.8482 113.776 65.5077 113.185 65.5077 113.1C65.4226 113.1 65.4226 113.607 65.5077 114.198C65.1672 113.692 64.9118 113.1 64.9118 113.016C64.8266 113.016 64.8266 113.523 64.8266 114.03C64.5712 113.523 64.3158 113.016 64.401 113.016C64.3158 113.016 64.3158 113.523 64.401 114.114C64.1456 113.523 63.8902 112.931 63.9753 112.931C63.8902 112.931 63.8902 113.354 63.8902 113.945C63.6348 113.438 63.4645 112.931 63.4645 112.931C63.3794 112.931 63.3794 113.354 63.3794 113.861C63.124 113.354 62.8686 112.762 62.9537 112.762C62.8686 112.762 62.8686 113.185 62.8686 113.776C62.5281 113.185 62.2727 112.509 62.3578 112.424C62.3578 112.424 62.2727 112.931 62.2727 113.523C62.0173 112.931 61.847 112.171 61.847 112.171C61.847 112.171 61.6767 112.593 61.6767 113.1C61.5065 112.509 61.4213 111.833 61.4213 111.833C61.4213 111.833 61.1659 112.255 61.0808 112.847C60.9105 112.171 60.8254 111.495 60.9105 111.495C60.9105 111.495 60.6551 111.918 60.57 112.509C60.4849 111.833 60.3997 110.904 60.3997 110.904C60.3997 110.904 60.1443 111.326 59.9741 111.918C59.8889 111.157 59.8038 110.143 59.8038 110.143C59.8038 110.143 59.4633 110.735 59.293 111.326C59.2079 110.566 59.2079 109.468 59.2079 109.468C59.2079 109.468 58.9525 109.806 58.7822 110.312V108.961C58.7822 108.961 58.5268 109.383 58.2714 109.89C58.2714 109.13 58.3566 108.031 58.3566 108.031C58.3566 108.031 58.016 108.454 57.7606 108.961C57.6755 108.2 57.8458 107.356 57.9309 107.356C57.9309 107.271 57.6755 107.694 57.4201 108.116C57.335 107.356 57.5052 106.426 57.5052 106.426C57.5052 106.342 57.1647 106.849 56.9093 107.44C56.9093 106.68 56.9944 105.582 56.9944 105.582C56.9944 105.582 56.5688 106.173 56.3134 106.849V106.511C56.2282 105.92 56.4836 104.906 56.5688 104.906C56.5688 104.821 56.058 105.244 55.8026 105.751C55.8026 105.666 55.8026 105.582 55.8877 105.582C55.8877 105.075 56.1431 104.145 56.2282 104.145C56.2282 104.145 55.5472 104.568 55.2918 105.075C55.2918 104.99 55.3769 104.99 55.3769 104.906C55.4621 104.399 55.8026 103.47 55.8026 103.47C55.8026 103.47 55.2918 103.808 54.9513 104.145C55.1215 103.639 55.3769 102.709 55.3769 102.709C55.3769 102.625 54.8661 102.963 54.5256 103.385C54.6959 102.878 54.8661 101.949 54.9513 101.949C54.9513 101.865 54.4405 102.202 54.0999 102.625C54.1851 102.202 54.0999 101.02 54.1851 100.766C55.8877 99.5836 59.9741 98.0629 59.9741 98.0629L59.6336 94.8527Z" fill="white"/>
</g>
</g>
<defs>
<clipPath id="clip0_3800_25248">
<rect width="138" height="86" fill="white" transform="translate(6 32)"/>
</clipPath>
</defs>
</svg>
