<svg width="34" height="34" viewBox="0 0 34 34" fill="none" xmlns="http://www.w3.org/2000/svg">
<g clip-path="url(#clip0_2_843)">
<path d="M25.6857 1H8.31429C4.27472 1 1 4.27472 1 8.31429V25.6857C1 29.7253 4.27472 33 8.31429 33H25.6857C29.7253 33 33 29.7253 33 25.6857V8.31429C33 4.27472 29.7253 1 25.6857 1Z" fill="white"/>
<path d="M25.6857 0.542858H8.31428C4.02224 0.542858 0.542854 4.02225 0.542854 8.31429V25.6857C0.542854 29.9778 4.02224 33.4572 8.31428 33.4572H25.6857C29.9778 33.4572 33.4572 29.9778 33.4572 25.6857V8.31429C33.4572 4.02225 29.9778 0.542858 25.6857 0.542858Z" stroke="#A69171" stroke-opacity="0.2" stroke-width="0.914286"/>
<path d="M7.25 17.4998L23.4339 13.2857L26.7418 16.5001L10.5579 20.7141L7.25 17.4998Z" fill="#1E1919"/>
<path d="M19.0243 9L10.9329 11.1076L14.2397 14.3219L22.3322 12.2143L19.0243 9Z" fill="#0061FE"/>
<path d="M11.6599 21.7855L19.7525 19.678L23.0592 22.8923L14.9678 24.9998L11.6599 21.7855Z" fill="#0061FE"/>
</g>
<defs>
<clipPath id="clip0_2_843">
<rect width="34" height="34" fill="white"/>
</clipPath>
</defs>
</svg>
