<svg width="150" height="150" viewBox="0 0 150 150" fill="none" xmlns="http://www.w3.org/2000/svg">
<g style="mix-blend-mode:multiply">
<path d="M25.9479 94.8597H30.7109L28.2938 89.0312L25.9479 94.8597Z" fill="#DE1F33"/>
<path d="M74.7867 84.4263H76.8484L83.3886 94.3562L89.9289 84.4263H91.9905V102.631H89.9289V87.8801L83.3886 97.6661H83.3175L76.7773 87.9521V102.631H74.7867V84.4263Z" fill="black"/>
<path d="M94.6208 84.4263H107.63V86.2971H96.6114V92.5573H106.422V94.4281H96.6114V100.76H107.701V102.631H94.6208V84.4263Z" fill="black"/>
<mask id="mask0_3800_25256" style="mask-type:luminance" maskUnits="userSpaceOnUse" x="0" y="36" width="150" height="78">
<path d="M150 36H0V114H150V36Z" fill="white"/>
</mask>
<g mask="url(#mask0_3800_25256)">
<path d="M115.877 100.76C120.071 100.76 122.772 97.6659 122.772 93.6364V93.5645C122.772 89.5349 120.071 86.3689 115.877 86.3689H111.967V100.76H115.877ZM110.047 84.498H115.877C121.137 84.498 124.763 88.3837 124.763 93.5645C124.763 98.6733 121.137 102.631 115.877 102.631H110.047V84.498Z" fill="#4D4D4D"/>
</g>
<path d="M129.313 84.4263H127.464V102.631H129.313V84.4263Z" fill="black"/>
<path d="M140.332 86.7288L144.384 96.0111H136.208L140.332 86.7288ZM139.408 84.3542L131.232 102.631H133.294L135.426 97.81H145.237L147.37 102.631H149.573L141.327 84.3542H139.408Z" fill="black"/>
<mask id="mask1_3800_25256" style="mask-type:luminance" maskUnits="userSpaceOnUse" x="0" y="36" width="150" height="78">
<path d="M150 36H0V114H150V36Z" fill="white"/>
</mask>
<g mask="url(#mask1_3800_25256)">
<path d="M108.128 109.755C108.057 107.452 109.905 105.509 112.18 105.437H112.322C113.46 105.365 114.597 105.797 115.45 106.588L114.526 107.668C113.886 107.092 113.104 106.732 112.251 106.804C110.758 106.876 109.55 108.172 109.621 109.683C109.55 111.194 110.616 112.561 112.18 112.633H112.464C113.175 112.633 113.886 112.417 114.455 111.985V110.474H112.393V109.179H115.877V112.633C114.953 113.496 113.744 113.928 112.464 113.928C110.261 114.072 108.341 112.345 108.199 110.042C108.057 109.97 108.057 109.827 108.128 109.755Z" fill="black"/>
<path d="M120.853 109.683C121.848 109.683 122.559 109.107 122.559 108.315C122.559 107.452 121.919 106.948 120.853 106.948H118.72V109.755L120.853 109.683ZM117.299 105.581H120.924C121.777 105.509 122.63 105.797 123.27 106.445C123.768 106.948 123.981 107.596 123.981 108.243C124.052 109.467 123.199 110.474 122.062 110.762L124.265 113.856H122.559L120.569 110.978H118.791V113.856H117.37L117.299 105.581Z" fill="black"/>
<path d="M132.156 109.755C132.228 108.172 131.019 106.876 129.455 106.804H129.384C127.891 106.804 126.611 108.028 126.611 109.611V109.755C126.54 111.338 127.749 112.633 129.313 112.705H129.384C130.877 112.705 132.156 111.481 132.156 109.898V109.755ZM125.119 109.683C125.119 107.308 127.038 105.365 129.384 105.365C131.73 105.365 133.649 107.308 133.649 109.683C133.649 112.057 131.73 114 129.384 114C127.038 114 125.119 112.129 125.119 109.683Z" fill="black"/>
<path d="M135 110.33V105.581H136.422V110.258C136.422 111.769 137.204 112.633 138.483 112.633C139.763 112.633 140.545 111.841 140.545 110.33V105.581H141.967V110.258C141.967 112.705 140.616 114 138.483 114C136.351 114 134.929 112.777 135 110.33Z" fill="black"/>
<path d="M146.73 109.898C147.796 109.898 148.507 109.323 148.507 108.387C148.507 107.452 147.796 106.876 146.73 106.876H145.024V109.826L146.73 109.898ZM143.673 105.581H146.872C148.791 105.581 150 106.66 150 108.315C150 110.186 148.507 111.122 146.73 111.122H145.095V113.784H143.673V105.581Z" fill="black"/>
</g>
<path d="M25.7346 94.8597H30.4266L28.0806 89.0312L25.7346 94.8597Z" fill="black"/>
<path d="M14.1469 84.3542H18.91L11.7299 92.1974L18.4123 102.415H13.7204L9.17062 95.0037L6.96682 97.4502V102.487H2.98578V84.3542H6.89573V92.2694L14.1469 84.3542ZM35.8294 84.3542H50.3318V88.024H45V102.415H41.09V88.024H35.7583V84.3542H35.8294ZM51.6825 84.3542H65.6872V87.952L56.4455 98.8893H65.6872V102.343H51.327V99.321L60.5687 87.952H51.6825V84.3542ZM26.3033 84.2103H29.9289L37.6066 102.415H33.4834L31.8483 98.3856H24.3128L22.6777 102.415H18.6967L26.3033 84.2103ZM0 105.437H68.6019V36H0V105.437Z" fill="black"/>
</g>
</svg>
