<svg width="150" height="150" viewBox="0 0 150 150" fill="none" xmlns="http://www.w3.org/2000/svg">
<g style="mix-blend-mode:multiply">
<path d="M0 83.7638V66.2361H2.31772V82.0256H10.9367V83.7638H0Z" fill="black"/>
<path d="M12.5303 68.4089V66.2361H14.9204V68.4089H12.5303ZM12.6751 83.7638V71.5234H14.848V83.7638H12.6751Z" fill="black"/>
<path d="M26.2915 83.764V76.9557C26.2915 74.7828 26.0743 72.9721 23.4668 72.9721C20.787 72.9721 20.0627 75.3622 20.0627 77.6075V83.764H17.8898V74.7104C17.8898 73.6964 17.8174 72.2478 17.8174 71.5235H19.9178L19.9902 73.4791C21.0042 72.1029 22.2355 71.3787 23.9738 71.3787C27.1607 71.3787 28.3196 73.117 28.3196 76.159V83.764H26.2915Z" fill="black"/>
<path d="M36.7214 84.0535C32.8827 84.0535 30.7822 81.5184 30.7822 77.7522C30.7822 73.9859 32.8827 71.1611 36.8662 71.1611C39.6185 71.1611 41.6465 72.5373 41.8638 75.4344H39.7634C39.6185 73.6961 38.6045 72.6097 36.8662 72.6097C33.9691 72.6097 33.0275 75.1447 33.0275 77.6073C33.0275 79.925 34.0415 82.5325 36.7214 82.5325C38.5321 82.5325 39.691 81.3736 39.7634 79.5629H41.7914H41.8638C41.6465 82.6049 39.5461 84.0535 36.7214 84.0535Z" fill="black"/>
<path d="M49.034 84.0535C45.1229 84.0535 43.0225 81.3012 43.0225 77.6074C43.0225 73.9135 45.2678 71.2336 49.1065 71.2336C53.0176 71.2336 55.1181 73.8411 55.1181 77.6074C55.0456 81.2288 52.8728 84.0535 49.034 84.0535ZM49.034 72.8271C46.2818 72.8271 45.2678 75.2172 45.2678 77.6074C45.2678 79.9975 46.2818 82.605 49.034 82.605C51.7863 82.605 52.8003 79.9251 52.8003 77.6074C52.8728 75.2172 51.7863 72.8271 49.034 72.8271Z" fill="black"/>
<path d="M57.3635 83.7638V66.2361H59.5364V83.7638H57.3635Z" fill="black"/>
<path d="M71.0525 83.764V76.9557C71.0525 74.7828 70.8352 72.9721 68.2278 72.9721C65.5479 72.9721 64.8237 75.3622 64.8237 77.6075V83.764H62.6508V74.7104C62.6508 73.6964 62.5784 72.2478 62.5784 71.5235H64.6788L64.7512 73.4791C65.7652 72.1029 66.9965 71.3787 68.7348 71.3787C71.9217 71.3787 73.0805 73.117 73.0805 76.159V83.764H71.0525Z" fill="black"/>
<path d="M88.363 84.0535C82.9308 84.0535 80.6855 80.1423 80.6855 75.1447C80.6855 70.3644 83.293 65.9463 88.5079 65.9463C91.405 65.9463 94.5194 67.3949 94.6643 70.7266H92.2742C92.0569 68.6986 90.391 67.757 88.5079 67.757C84.5243 67.757 83.0757 71.6682 83.0757 74.9999C83.0757 78.4765 84.3794 82.0979 88.4354 82.0979C90.6807 82.0979 92.2017 80.8666 92.3466 78.9835H94.8092C94.3022 82.7498 91.6223 84.0535 88.363 84.0535Z" fill="black"/>
<path d="M98.4308 78.0419V78.2592C98.4308 80.5044 99.662 82.6049 102.125 82.6049C103.863 82.6049 105.022 81.5184 105.311 79.7802H107.339C106.832 82.6773 104.732 83.981 101.98 83.981C98.141 83.981 96.3303 81.446 96.3303 77.7522C96.3303 74.0583 98.141 71.1611 102.125 71.1611C106.253 71.1611 107.412 74.348 107.412 77.897H98.4308V78.0419ZM102.052 72.7546C99.8069 72.7546 98.648 74.5653 98.5032 76.6657H105.311C105.311 74.6377 104.297 72.7546 102.052 72.7546Z" fill="black"/>
<path d="M118.059 83.764V76.9557C118.059 74.7828 117.842 72.9721 115.234 72.9721C112.554 72.9721 111.83 75.3622 111.83 77.6075V83.764H109.657V74.7104C109.657 73.6964 109.585 72.2478 109.585 71.5235H111.685L111.758 73.4791C112.772 72.1029 114.003 71.3787 115.741 71.3787C118.928 71.3787 120.087 73.117 120.087 76.159V83.764H118.059Z" fill="black"/>
<path d="M127.185 83.9088C125.229 83.9088 124.215 83.1121 124.215 81.0841V73.0445H121.825V71.5959H124.215V69.1333L126.388 68.2642V71.5235H129.141V72.972H126.388V80.2149C126.388 81.5911 126.533 82.2429 128.054 82.2429C128.416 82.2429 128.778 82.1705 129.213 82.0981V83.6915C128.489 83.8363 127.837 83.9088 127.185 83.9088Z" fill="black"/>
<path d="M132.255 78.0419V78.2592C132.255 80.5044 133.486 82.6049 135.949 82.6049C137.687 82.6049 138.846 81.5184 139.136 79.7802H141.164C140.657 82.6773 138.556 83.981 135.804 83.981C131.965 83.981 130.155 81.446 130.155 77.7522C130.155 74.0583 131.965 71.1611 135.949 71.1611C140.077 71.1611 141.236 74.348 141.236 77.897H132.255V78.0419ZM135.876 72.7546C133.631 72.7546 132.472 74.5653 132.327 76.6657H139.136C139.136 74.6377 138.122 72.7546 135.876 72.7546Z" fill="black"/>
<path d="M148.986 73.4067C146.451 73.4067 145.654 74.8552 145.654 77.173V83.764H143.481V75.0725C143.481 73.9137 143.409 72.6824 143.409 71.4511H145.509L145.582 73.4067C146.451 71.9581 147.682 71.3787 149.348 71.3787C149.565 71.3787 149.783 71.3787 150 71.4511V73.4791C149.638 73.4791 149.348 73.4067 148.986 73.4067Z" fill="black"/>
</g>
</svg>
