<svg width="150" height="150" viewBox="0 0 150 150" fill="none" xmlns="http://www.w3.org/2000/svg">
<path d="M78.9496 73.8631C78.9496 74.4633 78.6876 74.8944 77.8677 74.8944H72.6269C71.9507 74.8944 71.5703 74.7 71.5703 74.0744C71.5703 73.4489 71.8323 73.1362 72.6269 73.1362H78.9496V73.8547V73.8631ZM102.043 71.3864V70.6933C102.043 70.0678 102.305 69.6621 103.15 69.6621H108.391C109.109 69.6621 109.473 69.8818 109.473 70.5496C109.473 71.1244 109.185 71.3864 108.442 71.3864H102.051H102.043ZM115.787 66.7458V77.8022H121.07V69.755H125.398C126.86 69.755 127.613 70.2115 127.613 71.6316V77.8106H132.896V71.2005C132.896 68.0983 131.188 66.7543 126.362 66.7543H115.787V66.7458ZM102.761 66.7458C98.5095 66.7458 96.802 68.1659 96.802 71.3611V73.5504C96.802 76.3145 98.5095 77.8022 102.356 77.8022H113.556V74.8944H103.412C102.406 74.8944 102.068 74.607 102.068 73.8631V73.4067H110.073C112.837 73.4067 114.401 72.5445 114.401 70.4735V69.9663C114.401 68.0898 113.463 66.7458 108.78 66.7458H102.77H102.761ZM85.7711 77.8022H91.0541V70.5496C91.0541 70.0678 91.2485 69.755 91.8909 69.755H95.999V66.7543H90.1159C86.9714 66.7543 85.7626 67.9292 85.7626 69.8987V77.8022H85.7711ZM67.6989 66.7458V69.6536H77.6225C78.6115 69.6536 78.9412 69.9917 78.9412 70.7102V71.1413H70.9617C67.6228 71.1413 66.6085 72.5107 66.6085 74.2689V74.7C66.6085 77.1259 68.5526 77.8022 72.3733 77.8022H78.2396C82.3984 77.8022 84.1989 76.8639 84.1989 73.6011V71.0314C84.1989 68.2673 82.4914 66.7543 78.62 66.7543H67.6904L67.6989 66.7458ZM36.0852 72.8995C36.0852 76.3821 37.8603 77.8022 42.4502 77.8022H52.5176V74.8267H43.2194C42.1121 74.8267 41.3683 74.3196 41.3683 72.7389V71.7753C41.3683 70.3552 42.0614 69.755 43.1941 69.755H52.5176V66.7543H42.3065C37.7927 66.7543 36.0852 68.6562 36.0852 71.6823V72.908V72.8995ZM54.1067 64.9961V77.8022H65.5941V74.8014H59.3982V64.9961H54.1151H54.1067ZM21.1152 72.1557V64.9961H18.1398C16.2887 64.9961 15.232 65.7399 14.1247 66.6021L0 77.8022H6.365L15.7392 70.2115V77.8022H20.1347L29.2215 70.1608V77.8022H34.606V64.9961H31.6728C30.0837 64.9961 28.9848 65.6469 27.8775 66.5599L21.1237 72.1557H21.1152Z" fill="black"/>
<path d="M145.609 55.698C142.659 55.698 138.5 56.5771 133.994 58.2254C130.233 59.6032 126.514 61.3529 122.499 63.8888C124.848 62.9252 129.497 61.8432 133.318 61.8432C138.483 61.8432 142.168 63.8212 136.733 70.761C152.76 60.2625 152.32 55.698 145.609 55.698Z" fill="black"/>
<path d="M31.0641 94.2261H29.9822V89.0276H32.9576V89.932H31.0641V91.2676H32.8223V92.1636H31.0641V94.2176V94.2261Z" fill="black"/>
<path d="M41.5796 91.6226C41.5796 92.4848 41.3683 93.1441 40.9372 93.609C40.5061 94.0739 39.8975 94.3022 39.1029 94.3022C38.3083 94.3022 37.6997 94.0739 37.2686 93.609C36.8375 93.1441 36.6262 92.4848 36.6262 91.6226C36.6262 90.7604 36.8375 90.1011 37.2686 89.6446C37.6997 89.1882 38.3083 88.96 39.1114 88.96C39.9144 88.96 40.523 89.1882 40.9456 89.6531C41.3683 90.1096 41.5796 90.7773 41.5796 91.6395V91.6226ZM37.7927 91.6226C37.7927 92.2059 37.9026 92.637 38.1224 92.9328C38.3422 93.2287 38.6718 93.3724 39.1114 93.3724C39.9905 93.3724 40.43 92.7891 40.43 91.6226C40.43 90.4561 39.9905 89.8644 39.1198 89.8644C38.6803 89.8644 38.3506 90.0081 38.1308 90.304C37.9111 90.5998 37.7927 91.0394 37.7927 91.6142V91.6226Z" fill="black"/>
<path d="M46.6851 92.2312V94.2261H45.5862V89.0276H47.0992C47.8093 89.0276 48.3249 89.1544 48.663 89.4164C49.0011 89.67 49.1702 90.0673 49.1702 90.5914C49.1702 90.8957 49.0857 91.1662 48.9166 91.4028C48.7475 91.6395 48.5109 91.8255 48.2066 91.9607L49.7365 94.2261H48.5109L47.2683 92.2312H46.6851ZM46.6851 91.3352H47.0401C47.3866 91.3352 47.6487 91.276 47.8093 91.1577C47.9783 91.0394 48.0544 90.8619 48.0544 90.6083C48.0544 90.3547 47.9699 90.1856 47.8008 90.0842C47.6318 89.9828 47.3697 89.932 47.0147 89.932H46.6766V91.3352H46.6851Z" fill="black"/>
<path d="M55.6365 94.2261L54.3854 90.1518H54.3516C54.3939 90.9802 54.4193 91.5381 54.4193 91.8086V94.2261H53.4387V89.0276H54.9349L56.1605 93.0004H56.1859L57.4876 89.0276H58.9838V94.2261H57.961V91.7663C57.961 91.648 57.961 91.5127 57.961 91.369C57.961 91.2169 57.9779 90.8111 58.0117 90.1603H57.9779L56.6424 94.2261H55.6365Z" fill="black"/>
<path d="M67.4453 89.0276V92.3918C67.4453 92.7722 67.3608 93.1103 67.1917 93.3977C67.0226 93.6851 66.7691 93.9049 66.4479 94.0655C66.1267 94.2176 65.7378 94.2937 65.2983 94.2937C64.6305 94.2937 64.1149 94.1247 63.7429 93.7781C63.371 93.44 63.1851 92.9666 63.1851 92.3749V89.0276H64.2839V92.2058C64.2839 92.6031 64.3685 92.899 64.5291 93.0849C64.6897 93.2709 64.9602 93.3639 65.3321 93.3639C65.704 93.3639 65.9491 93.2709 66.1182 93.0849C66.2788 92.899 66.3633 92.6031 66.3633 92.1974V89.0276H67.4622H67.4453Z" fill="black"/>
<path d="M71.6379 94.2261V89.0276H72.7367V93.3132H74.8415V94.2261H71.6294H71.6379Z" fill="black"/>
<path d="M82.1955 94.2262L81.8151 92.9921H79.9217L79.5413 94.2262H78.3579L80.1922 89.0107H81.5362L83.3789 94.2262H82.1955ZM81.5531 92.0622C81.2065 90.938 81.0121 90.304 80.9614 90.1603C80.9191 90.0166 80.8853 89.8983 80.8684 89.8138C80.7923 90.1181 80.5641 90.8704 80.2006 92.0622H81.5531Z" fill="black"/>
<path d="M93.2265 94.2261H92.1276V91.2169C92.1276 91.1577 92.1276 91.0816 92.1276 90.9971C92.1276 90.9126 92.1276 90.8196 92.1276 90.7266C92.1276 90.6336 92.1276 90.5406 92.136 90.4477C92.136 90.3547 92.136 90.2702 92.1445 90.1856C92.136 90.2025 92.1107 90.2194 92.0853 90.2532C92.06 90.287 92.0261 90.3124 91.9923 90.3462C91.9585 90.38 91.9163 90.4138 91.8825 90.4477C91.8487 90.4815 91.8064 90.5153 91.7726 90.5407L91.1724 91.0224L90.6399 90.3631L92.3135 89.0276H93.218V94.2261H93.2265Z" fill="black"/>
<path d="M106.43 94.226H105.331V89.9488H103.919V89.0359H107.841V89.9488H106.43V94.226Z" fill="black"/>
<path d="M114.595 94.2261H111.603V89.0276H114.595V89.932H112.702V91.0732H114.46V91.9776H112.702V93.3132H114.595V94.2261Z" fill="black"/>
<path d="M122.025 94.2259L121.645 92.9918H119.752L119.371 94.2259H118.188L120.022 89.0105H121.366L123.209 94.2259H122.025ZM121.383 92.062C121.036 90.9378 120.842 90.3038 120.791 90.1601C120.749 90.0164 120.715 89.8981 120.698 89.8135C120.622 90.1178 120.394 90.8701 120.03 92.062H121.383Z" fill="black"/>
<path d="M129.109 94.2261L127.858 90.1518H127.824C127.866 90.9802 127.892 91.5381 127.892 91.8086V94.2261H126.911V89.0276H128.407L129.633 93.0004H129.658L130.96 89.0276H132.456V94.2261H131.433V91.7663C131.433 91.648 131.433 91.5127 131.433 91.369C131.433 91.2169 131.45 90.8111 131.484 90.1603H131.45L130.115 94.2261H129.109Z" fill="black"/>
<path d="M95.9566 92.1128C95.7284 92.1128 95.517 92.0705 95.3311 91.9945C95.1367 91.9184 94.9761 91.8085 94.8324 91.6648C94.6971 91.5211 94.5872 91.3605 94.5111 91.1661C94.4351 90.9801 94.3928 90.7688 94.3928 90.549C94.3928 90.3293 94.4351 90.1179 94.5111 89.9235C94.5872 89.7291 94.7056 89.5685 94.8408 89.4248C94.9845 89.2896 95.1451 89.1797 95.3395 89.0951C95.534 89.0106 95.7368 88.9768 95.9481 88.9768C96.1595 88.9768 96.3792 89.0191 96.5652 89.0951C96.7511 89.1797 96.9202 89.2895 97.0639 89.4332C97.2076 89.5769 97.3175 89.746 97.3936 89.932C97.4696 90.1179 97.5119 90.3208 97.5119 90.5321C97.5119 90.7434 97.4696 90.9632 97.3936 91.1492C97.3175 91.3351 97.2076 91.5042 97.0639 91.6479C96.9202 91.7916 96.7596 91.9015 96.5652 91.9776C96.3792 92.0536 96.1679 92.0959 95.9481 92.0959L95.9566 92.1128ZM95.9566 91.9437C96.151 91.9437 96.337 91.91 96.506 91.8339C96.6751 91.7663 96.8188 91.6648 96.9456 91.538C97.0724 91.4112 97.1654 91.2591 97.2414 91.09C97.3091 90.921 97.3513 90.7434 97.3513 90.549C97.3513 90.3546 97.3175 90.1771 97.2499 90.0081C97.1822 89.839 97.0808 89.6953 96.9625 89.5601C96.8357 89.4333 96.692 89.3318 96.5229 89.2557C96.3539 89.1797 96.1679 89.1458 95.9735 89.1458C95.7791 89.1458 95.5931 89.1797 95.4241 89.2473C95.255 89.3149 95.1113 89.4163 94.9845 89.5431C94.8577 89.6699 94.7647 89.8136 94.6887 89.9827C94.621 90.1518 94.5872 90.3377 94.5872 90.5321C94.5872 90.7265 94.621 90.904 94.6887 91.0731C94.7563 91.2422 94.8493 91.3859 94.9761 91.5211C95.1029 91.6479 95.2466 91.7493 95.4156 91.8254C95.5847 91.9015 95.7706 91.9353 95.9735 91.9353L95.9566 91.9437ZM95.441 91.4197V89.6784H95.9397C96.1341 89.6784 96.2778 89.7206 96.3792 89.8052C96.4807 89.8897 96.5314 90.0165 96.5314 90.1856C96.5314 90.3124 96.4976 90.4138 96.4299 90.4983C96.3623 90.5744 96.2863 90.6336 96.1848 90.6674L96.6497 91.4366H96.413L95.9904 90.7181H95.6438V91.4366H95.441V91.4197ZM95.6438 90.5321H95.9228C96.0411 90.5321 96.1425 90.5068 96.2186 90.4476C96.2947 90.3884 96.337 90.3039 96.337 90.194C96.337 90.0841 96.3032 89.9911 96.2271 89.9404C96.151 89.8897 96.058 89.8643 95.9312 89.8643H95.6438V90.5406V90.5321Z" fill="black"/>
</svg>
