<?xml version="1.0" encoding="UTF-8"?>
<svg id="Layer_2" xmlns="http://www.w3.org/2000/svg" xmlns:xlink="http://www.w3.org/1999/xlink" viewBox="0 0 32 32">
  <defs>
    <style>
      .cls-1 {
        fill: none;
      }

      .cls-2 {
        fill: #eeeae4;
      }

      .cls-3 {
        fill: #f6c765;
      }

      .cls-4 {
        fill: #171d26;
      }

      .cls-5 {
        clip-path: url(#clippath-1);
      }

      .cls-6 {
        fill: #5263f3;
      }

      .cls-7 {
        fill: #e29eb2;
      }

      .cls-8 {
        clip-path: url(#clippath);
      }
    </style>
    <clipPath id="clippath">
      <rect class="cls-1" x="7.52" y="7.5" width="16.98" height="16.69"/>
    </clipPath>
    <clipPath id="clippath-1">
      <rect class="cls-1" x="7.52" y="7.5" width="16.98" height="16.69"/>
    </clipPath>
  </defs>
  <g id="Layer_1-2" data-name="Layer_1">
    <path class="cls-2" d="M24.72,1c3.47,0,6.28,2.82,6.28,6.28v17.43c0,3.47-2.82,6.28-6.28,6.28H7.28c-3.47,0-6.28-2.82-6.28-6.28V7.28C1,3.82,3.82,1,7.28,1h17.43M24.72,0H7.28C3.26,0,0,3.26,0,7.28v17.43c0,4.02,3.26,7.28,7.28,7.28h17.43c4.02,0,7.28-3.26,7.28-7.28V7.28c0-4.02-3.26-7.28-7.28-7.28h0Z"/>
    <g id="icon">
      <g class="cls-8">
        <rect class="cls-7" x="7.52" y="7.65" width="7.8" height="7.8"/>
        <g class="cls-5">
          <path class="cls-6" d="M15.31,20.29c0,2.15-1.75,3.9-3.9,3.9s-3.9-1.75-3.9-3.9,1.75-3.9,3.9-3.9,3.9,1.75,3.9,3.9"/>
          <path class="cls-4" d="M24.21,11.4c0,2.15-1.75,3.9-3.9,3.9s-3.9-1.75-3.9-3.9,1.75-3.9,3.9-3.9,3.9,1.75,3.9,3.9"/>
          <polygon class="cls-3" points="20.33 16.97 16.17 24.19 24.5 24.19 20.33 16.97"/>
        </g>
      </g>
    </g>
  </g>
</svg>