<svg width="34" height="34" fill="none" xmlns="http://www.w3.org/2000/svg"><g clip-path="url(#a)"><path d="M25.6857 1H8.31429C4.27472 1 1 4.27472 1 8.31429V25.6857C1 29.7253 4.27472 33 8.31429 33H25.6857C29.7253 33 33 29.7253 33 25.6857V8.31429C33 4.27472 29.7253 1 25.6857 1Z" fill="#fff"/><path d="M25.6857.542858H8.31429C4.02224.542858.542856 4.02225.542856 8.31429V25.6857c0 4.2921 3.479384 7.7715 7.771434 7.7715H25.6857c4.2921 0 7.7715-3.4794 7.7715-7.7715V8.31429c0-4.29204-3.4794-7.771432-7.7715-7.771432Z" stroke="#A69171" stroke-opacity=".2" stroke-width=".914286"/><path fill-rule="evenodd" clip-rule="evenodd" d="M9.23535 13.9741v-.0276L17.0005 9v6.0794l-3.0017 1.9121 3.0017 1.9014V25l-7.76515-4.9465v-6.0794Z" fill="#1E1919"/><path fill-rule="evenodd" clip-rule="evenodd" d="M17.0004 13.9741v-.0276L24.7655 9v6.0794l-3.0016 1.9121 3.0016 1.9014V25l-7.7651-4.9465v-6.0794Z" fill="#0061FE"/></g><defs><clipPath id="a"><path fill="#fff" d="M0 0h34v34H0z"/></clipPath></defs></svg>