<svg width="150" height="150" viewBox="0 0 150 150" fill="none" xmlns="http://www.w3.org/2000/svg">
<path d="M15.7681 124.608C15.7681 122.016 17.8081 120 20.2321 120C22.6561 120 23.4481 120.888 24.1441 122.544L22.8961 123.096C22.4401 121.896 21.4561 121.296 20.2561 121.296C19.0561 121.296 17.2801 122.688 17.2801 124.584C17.2801 126.48 18.5761 127.872 20.3041 127.872C22.0321 127.872 22.6321 127.128 23.0401 125.88L24.3841 126.336C23.7841 128.064 22.2001 129.168 20.3521 129.168C17.8081 129.168 15.7921 127.368 15.7921 124.56L15.7681 124.608Z" fill="black"/>
<path d="M25.9438 120.144H27.2878V129.072H25.9438V120.144Z" fill="black"/>
<path d="M29.7122 120.144H33.0962C34.8962 120.144 36.2162 121.296 36.2162 122.928C36.2162 124.56 35.5202 125.016 34.4402 125.472L36.6242 129.048H34.9922L33.0002 125.712H31.0562V129.048H29.7122V120.12V120.144ZM31.0562 121.416V124.536H32.9522C34.1042 124.536 34.7522 123.888 34.7522 123C34.7522 122.112 34.1042 121.416 32.9522 121.416H31.0562Z" fill="black"/>
<path d="M51.2639 132.408C46.8479 132.408 44.1599 129.816 41.0879 129.12C39.1439 128.664 37.6079 126.888 37.6079 124.656C37.6079 122.424 39.6479 120.048 42.1199 120.048C44.5919 120.048 46.6319 121.992 46.6319 124.656C46.6319 127.32 45.4799 128.184 43.7999 128.832C46.3439 129.816 48.7199 131.52 51.9359 131.52C55.1519 131.52 54.5279 131.16 55.7519 130.32L56.0399 130.728C54.8399 131.76 53.3519 132.408 51.3119 132.408H51.2639ZM45.1199 124.608C45.1199 122.664 43.7759 121.32 42.0479 121.32C40.3199 121.32 38.9759 122.664 38.9759 124.608C38.9759 126.552 40.3199 127.896 42.0479 127.896C43.8239 127.896 45.1199 126.552 45.1199 124.608Z" fill="black"/>
<path d="M48.384 125.64V120.168H49.728V125.568C49.728 127.104 50.568 127.944 51.96 127.944C53.352 127.944 54.192 127.104 54.192 125.568V120.168H55.536V125.64C55.536 127.824 54 129.216 51.96 129.216C49.92 129.216 48.384 127.872 48.384 125.64Z" fill="black"/>
<path d="M57.7681 120.144H63.9121V121.392H59.1361V123.984H63.4561V125.184H59.1361V127.776H63.9601V129.024H57.7921V120.096L57.7681 120.144Z" fill="black"/>
<path d="M69.0959 120.144H72.1199C74.7119 120.144 76.6799 121.992 76.6799 124.608C76.6799 127.224 74.7839 129.072 72.1199 129.072H69.0959V120.144ZM70.4399 121.416V127.824H71.9279C73.8719 127.824 75.1679 126.528 75.1679 124.608C75.1679 122.688 73.8719 121.392 71.9279 121.392H70.4399V121.416Z" fill="black"/>
<path d="M78.384 125.64V120.168H79.728V125.568C79.728 127.104 80.568 127.944 81.96 127.944C83.352 127.944 84.192 127.104 84.192 125.568V120.168H85.536V125.64C85.536 127.824 84 129.216 81.96 129.216C79.92 129.216 78.384 127.872 78.384 125.64Z" fill="black"/>
<path d="M94.4161 125.352L93.2161 125.064C91.5841 124.704 90.8401 123.576 90.8401 122.544C90.8401 121.512 91.9921 120 93.8641 120C95.7361 120 96.6961 121.032 96.9361 122.376L95.6401 122.616C95.4961 121.728 94.8961 121.224 93.8401 121.224C92.7841 121.224 92.2081 121.872 92.2081 122.52C92.2081 123.168 92.5681 123.624 93.6001 123.864L94.7521 124.152C96.3361 124.512 97.1761 125.496 97.1761 126.624C97.1761 127.752 95.9761 129.264 93.9361 129.264C91.8961 129.264 90.7201 128.064 90.6001 126.48L91.9441 126.24C92.0401 127.32 92.6881 128.016 93.9841 128.016C95.2801 128.016 95.7601 127.416 95.7601 126.672C95.7601 126.12 95.4001 125.592 94.4641 125.376L94.4161 125.352Z" fill="black"/>
<path d="M98.4958 124.608C98.4958 121.968 100.536 120 103.008 120C105.48 120 107.52 121.944 107.52 124.608C107.52 127.272 105.48 129.216 103.008 129.216C100.536 129.216 98.4958 127.272 98.4958 124.608ZM106.032 124.608C106.032 122.664 104.688 121.32 102.96 121.32C101.232 121.32 99.8879 122.664 99.8879 124.608C99.8879 126.552 101.232 127.896 102.96 127.896C104.688 127.896 106.032 126.552 106.032 124.608Z" fill="black"/>
<path d="M109.368 120.144H110.712V127.8H115.08V129.048H109.368V120.12V120.144Z" fill="black"/>
<path d="M116.568 120.144H122.712V121.392H117.936V123.984H122.256V125.184H117.936V127.776H122.76V129.024H116.544V120.096H116.592L116.568 120.144Z" fill="black"/>
<path d="M124.752 120.144H126.096V129.072H124.752V120.144Z" fill="black"/>
<path d="M128.52 120.144H129.864V127.8H134.232V129.048H128.52V120.12V120.144Z" fill="black"/>
<path d="M133.248 120.144C133.752 120.144 134.232 120.552 134.232 121.128C134.232 121.704 133.824 122.112 133.248 122.112C132.672 122.112 132.264 121.704 132.264 121.128C132.312 120.624 132.72 120.144 133.248 120.144ZM133.248 121.92C133.656 121.92 133.992 121.584 133.992 121.176C133.992 120.768 133.656 120.432 133.248 120.432C132.84 120.432 132.504 120.768 132.504 121.176C132.504 121.536 132.84 121.92 133.248 121.92ZM133.248 121.272H133.152V121.632H132.912V120.6H133.272C133.464 120.6 133.632 120.744 133.632 120.936C133.632 121.128 133.536 121.224 133.392 121.272L133.632 121.68H133.392L133.2 121.272H133.248ZM133.296 121.08C133.392 121.08 133.488 121.032 133.488 120.936C133.488 120.84 133.44 120.792 133.296 120.792H133.152V121.08H133.296Z" fill="#303030"/>
<path d="M87.6481 70.488L94.4881 80.472L86.1841 72.192C84.1921 74.184 81.6721 75.624 78.8401 76.32L79.0321 77.064C79.1281 77.424 79.1761 77.76 79.2721 78.144C79.6321 80.136 80.0161 82.008 83.5441 84.096C86.4721 85.776 86.6641 89.112 86.5681 90.048C87.0241 89.592 87.6721 88.416 87.7681 86.976C87.8641 85.68 87.5281 83.76 85.4401 81.912C82.6561 79.44 83.0641 76.56 83.5441 75.072L83.6401 74.832L100.128 86.112L88.5601 69.144C88.2721 69.6 88.0081 70.032 87.6721 70.44L87.6481 70.488Z" fill="black"/>
<path d="M52.7522 71.3282C56.7122 72.4082 58.2722 71.2802 59.9522 70.1762C60.2402 69.9842 60.5522 69.7682 60.8882 69.5762L61.5362 69.2162C60.4562 67.4402 59.7362 65.4482 59.4482 63.3122L47.5922 61.0802H59.2082C59.2082 59.7842 59.3522 58.4882 59.6642 57.2642L39.5042 61.0802L59.2082 64.8002L59.1122 64.9922C58.4162 66.3842 56.6402 68.7602 52.9442 68.5202C50.2082 68.3282 48.5761 69.4562 47.7361 70.4162C46.7521 71.5202 46.4402 72.7922 46.3922 73.4402C46.9922 72.6962 49.5122 70.4642 52.7522 71.3522V71.3282Z" fill="black"/>
<path d="M66.5519 84.048C70.0799 82.008 70.4639 80.088 70.8239 78.096C70.8719 77.76 70.9679 77.4 71.0159 77.064L71.2079 76.32C68.3759 75.624 65.8559 74.136 63.8639 72.144L55.5839 80.424L62.4239 70.44C62.0879 70.032 61.8239 69.552 61.5359 69.144L49.9199 86.136L66.4559 74.856L66.5519 75.096C67.0559 76.584 67.4879 79.464 64.6559 81.936C62.5679 83.736 62.2319 85.704 62.3279 87C62.4239 88.44 63.0719 89.592 63.5279 90.072C63.4319 89.088 63.6239 85.8 66.5519 84.072V84.048Z" fill="black"/>
<path d="M65.6641 33.7441C64.5601 32.7601 63.2881 32.4481 62.6401 32.4001C63.3361 33.0001 65.5681 35.5201 64.6801 38.7601C63.6001 42.7201 64.7281 44.2801 65.8321 45.9601C66.0241 46.2481 66.2401 46.5601 66.4321 46.8961L66.7921 47.5441C68.5681 46.4641 70.5601 45.7441 72.6961 45.4561L74.9281 33.6001V45.2641C77.9041 45.2641 80.6881 46.1041 83.0641 47.4961L83.4241 46.8481C83.6161 46.5121 83.8321 46.2481 84.0241 45.9121C85.1761 44.2321 86.2561 42.6721 85.1761 38.7121C84.2881 35.4721 86.5201 32.9521 87.2161 32.3521C86.5681 32.3521 85.3201 32.7121 84.1921 33.6961C83.2081 34.5361 82.1041 36.1681 82.2961 38.9041C82.5361 42.6241 80.2081 44.3281 78.8161 45.0721L78.6241 45.1681L74.9041 25.4641L71.1841 45.1681L70.9921 45.0721C69.6001 44.3761 67.2721 42.6001 67.5121 38.9041C67.7041 36.2161 66.5761 34.5841 65.6161 33.7441H65.6641Z" fill="black"/>
<path d="M86.1601 49.8718L94.4401 41.5918L87.6001 51.5758C88.8481 53.2558 89.7841 55.1518 90.2881 57.1918L91.0321 56.9998C91.3921 56.9038 91.7281 56.8558 92.1121 56.7598C94.1041 56.3998 95.9761 56.0158 98.0641 52.4878C99.7441 49.5598 103.08 49.3678 104.016 49.4638C103.56 49.0078 102.384 48.3598 100.944 48.2638C99.6481 48.1678 97.7281 48.5038 95.8801 50.5918C93.4081 53.3758 90.5281 52.9678 89.0401 52.4878L88.8001 52.3918L100.08 35.9038L83.1121 47.4718C84.2161 48.1678 85.2481 48.9598 86.1361 49.8478L86.1601 49.8718Z" fill="black"/>
<path d="M78.7681 76.344C78.2641 76.488 77.7361 76.584 77.2321 76.68L75.0001 88.536V76.824C73.7041 76.824 72.4081 76.632 71.1841 76.368L75.0001 96.528L78.7681 76.368V76.344Z" fill="black"/>
<path d="M103.608 73.3677C103.608 72.7197 103.248 71.4717 102.264 70.3437C101.424 69.3597 99.7919 68.2557 97.0559 68.4477C93.3359 68.6877 91.5839 66.3597 90.8879 64.9677L90.7919 64.7757L110.496 61.0557L90.3359 57.2397C90.4799 57.7437 90.5759 58.2717 90.6719 58.7757L102.528 61.0077H90.8159C90.8159 63.9837 89.9759 66.7677 88.5359 69.1437L89.1839 69.5037C89.5199 69.6957 89.7839 69.9117 90.1199 70.1037C91.7999 71.2557 93.3599 72.3357 97.3199 71.2557C100.536 70.4157 103.032 72.6477 103.632 73.3437L103.608 73.3677Z" fill="black"/>
<path d="M61.008 52.5599C59.52 53.0639 56.64 53.4959 54.168 50.6639C52.368 48.5759 50.4 48.2399 49.104 48.3359C47.664 48.4319 46.512 49.0799 46.032 49.5359C46.968 49.4399 50.304 49.6799 51.984 52.5599C54.024 56.0879 55.944 56.4719 57.936 56.8319C58.272 56.8799 58.632 56.9759 58.968 57.0719L59.712 57.2639C60.216 55.1759 61.152 53.2799 62.4 51.6479L55.56 41.6159L63.84 49.8959C64.728 49.0079 65.736 48.2159 66.864 47.5199L49.896 35.9519L61.176 52.4879L60.984 52.5839L61.008 52.5599Z" fill="black"/>
<path d="M57.312 83.3522C58.296 84.1442 59.304 84.8402 60.432 85.4882C60.528 84.5522 60.792 83.8082 61.08 83.2082C60.48 82.8482 59.928 82.4642 59.352 82.0562L57.312 83.3522Z" fill="black"/>
<path d="M89.5918 85.4882C90.6718 84.8402 91.6798 84.1442 92.7118 83.3522L90.6718 82.0562C90.1198 82.4642 89.5678 82.8482 88.9438 83.2082C89.2798 83.8562 89.4958 84.6002 89.5918 85.4882Z" fill="black"/>
<path d="M94.9681 84.8401C93.2401 86.2801 91.4401 87.5281 89.4481 88.5601C88.9441 90.3601 87.7201 91.5841 86.6641 92.3281C90.4801 90.8881 94.0081 88.8001 97.0321 86.1601L94.9921 84.8641L94.9681 84.8401Z" fill="black"/>
<path d="M44.664 74.952C44.424 73.656 44.424 71.928 45.36 70.296C44.712 68.208 44.28 65.976 44.064 63.744L41.688 63.24C41.976 67.368 42.984 71.328 44.664 74.952Z" fill="black"/>
<path d="M46.656 64.3198C46.8 65.5678 47.016 66.8398 47.352 68.0398C48.096 67.4878 48.792 67.1038 49.44 66.8878C49.296 66.1918 49.152 65.5438 49.08 64.8478L46.656 64.3438V64.3198Z" fill="black"/>
<path d="M84.7441 90.5278C82.5121 91.2718 80.1361 91.7758 77.6881 91.9678L77.1841 94.3438C79.7281 94.1518 82.2481 93.7438 84.6241 92.9998C84.7681 92.2078 84.8161 91.3678 84.7681 90.5278H84.7441Z" fill="black"/>
<path d="M47.2559 75.0479C46.6079 75.5999 46.0559 76.1999 45.5759 76.8479C46.7759 79.0799 48.2159 81.1679 49.8959 83.0159L51.1919 81.0239C49.6559 79.1759 48.3599 77.1599 47.2319 75.0239L47.2559 75.0479Z" fill="black"/>
<path d="M49.44 73.656C50.328 75.456 51.432 77.184 52.68 78.768L53.976 76.728C53.184 75.648 52.488 74.592 51.888 73.44C51.096 73.248 50.256 73.392 49.416 73.68L49.44 73.656Z" fill="black"/>
<path d="M100.56 66.8639C101.256 67.1039 101.952 67.4639 102.648 68.0159C102.984 66.8159 103.152 65.5439 103.344 64.2959L100.92 64.7999C100.824 65.4959 100.68 66.1919 100.56 66.8399V66.8639Z" fill="black"/>
<path d="M65.856 88.0559C67.752 88.7039 69.72 89.1359 71.76 89.3519L71.256 86.9279C69.96 86.7359 68.664 86.4719 67.44 86.0879C66.744 86.5439 66.24 87.1919 65.856 88.0319V88.0559Z" fill="black"/>
<path d="M39.0001 62.64L36.6721 62.136C36.9601 71.88 40.8961 80.712 47.1361 87.36L48.4321 85.368C42.9121 79.32 39.4081 71.424 39.0001 62.64Z" fill="black"/>
<path d="M60.552 88.512C58.56 87.48 56.736 86.232 55.032 84.792L53.04 86.088C56.064 88.728 59.544 90.864 63.408 92.256C62.304 91.512 61.08 90.312 60.576 88.488L60.552 88.512Z" fill="black"/>
<path d="M100.56 73.6562C99.72 73.3202 98.88 73.2482 98.088 73.3682C97.488 74.5202 96.744 75.6482 96 76.6562L97.296 78.6962C98.544 77.1602 99.672 75.4802 100.536 73.6322L100.56 73.6562Z" fill="black"/>
<path d="M78.24 89.3519C80.28 89.1119 82.224 88.6559 84.144 88.0559C83.784 87.2639 83.256 86.5679 82.56 86.1599C81.312 86.5199 80.04 86.8079 78.744 86.9999L78.24 89.3759V89.3519Z" fill="black"/>
<path d="M51.7198 66.456C52.7518 66.36 53.7118 66.3601 54.5998 66.0001L51.5278 65.3521C51.5758 65.7121 51.6718 66.096 51.7198 66.456Z" fill="black"/>
<path d="M55.3439 74.64L55.8959 73.752C55.5599 73.8 55.2479 73.848 54.8159 73.848C55.0079 74.136 55.1759 74.352 55.3199 74.64H55.3439Z" fill="black"/>
<path d="M62.3521 81.3119C63.0481 80.5199 63.6961 79.8239 64.0321 78.9839L61.3921 80.7119C61.7521 80.9039 62.0881 81.1199 62.3761 81.3119H62.3521Z" fill="black"/>
<path d="M80.208 84.3358C79.92 84.0478 79.656 83.7838 79.512 83.4958L79.272 84.5279C79.608 84.4799 79.92 84.4318 80.208 84.3358Z" fill="black"/>
<path d="M70.728 84.5279L70.488 83.4958C70.296 83.7358 70.08 83.9998 69.792 84.3358C70.08 84.4318 70.392 84.4799 70.728 84.5279Z" fill="black"/>
<path d="M118.44 61.0079C118.44 37.0319 98.9761 17.5679 75.0001 17.5679C51.0241 17.5679 31.5601 37.0559 31.5601 61.0079C31.5601 84.9839 51.0241 104.448 75.0001 104.448C98.9761 104.448 118.44 85.0319 118.44 61.0079ZM116.16 61.5359C116.016 72.5519 111.6 82.4879 104.448 89.8319C96.9601 97.4399 86.5681 102.192 75.0481 102.192H74.4961C63.5281 102.048 53.5921 97.5839 46.2961 90.4799C38.7121 83.0879 33.9841 72.7919 33.9361 61.3919V61.0559V61.0079V60.5519L52.5601 56.5679C51.8641 56.0639 50.9761 55.1759 50.0161 53.5439C48.7681 51.4079 45.2881 50.9999 42.7201 51.5519C42.7201 51.5519 44.3521 46.3919 49.4161 46.3919C54.4801 46.3919 54.9361 49.2719 57.1201 50.1599L44.3041 30.3599L62.3281 41.9759C62.1841 41.1359 62.1841 39.8399 62.6641 38.0159C63.2641 35.5919 61.1281 32.8559 58.8961 31.4159C58.8961 31.4159 63.6721 28.8959 67.2481 32.5199C70.4641 35.7359 69.1441 38.4719 70.0321 40.6559L75.0001 17.6639L79.9681 40.6559C80.8561 38.5199 79.5601 35.7359 82.7521 32.5199C86.3761 28.8959 91.1041 31.4159 91.1041 31.4159C88.8721 32.8559 86.7841 35.5919 87.3361 38.0159C87.7921 39.8159 87.7921 41.1359 87.6721 41.9759L105.696 30.3599L92.9281 50.1599C95.0641 49.2719 96.1441 46.3919 100.632 46.3919C105.12 46.3919 107.328 51.5519 107.328 51.5519C104.736 50.9999 101.28 51.4559 100.032 53.5439C99.0481 55.1759 98.1841 56.0639 97.4881 56.5679L116.208 60.5999V61.0559V61.4639C116.16 61.4639 116.16 61.5119 116.16 61.5119V61.5359Z" fill="black"/>
<path d="M101.568 85.368L102.864 87.36C109.128 80.712 113.04 71.88 113.328 62.136L111 62.64C110.592 71.424 107.088 79.32 101.568 85.368Z" fill="black"/>
<path d="M50.712 87.6479L48.72 88.9439C55.368 95.2079 64.2 99.1199 73.896 99.4079L73.392 97.0799C64.656 96.6719 56.76 93.1679 50.712 87.6479Z" fill="black"/>
<path d="M95.1601 73.848C94.7521 73.848 94.3681 73.8 94.0801 73.752L94.6321 74.64C94.7761 74.352 94.9681 74.136 95.1361 73.848H95.1601Z" fill="black"/>
<path d="M102.744 75.0481C101.664 77.1841 100.32 79.2241 98.7839 81.0481L100.08 83.0401C101.76 81.1441 103.2 79.0801 104.4 76.8721C103.944 76.2241 103.32 75.5761 102.72 75.0721L102.744 75.0481Z" fill="black"/>
<path d="M99.2882 87.6479C93.2402 93.1679 85.2962 96.6719 76.5602 97.0319L76.0562 99.3599C85.8002 99.0719 94.6322 95.1839 101.232 88.8959L99.2882 87.6479Z" fill="black"/>
<path d="M108.312 63.24L105.936 63.744C105.744 66.024 105.336 68.208 104.64 70.296C105.576 71.928 105.576 73.632 105.336 74.952C107.016 71.328 108.024 67.368 108.312 63.24Z" fill="black"/>
<path d="M98.4961 65.3279L95.4241 65.9759C96.2641 66.3359 97.2241 66.3359 98.3041 66.4319C98.3041 66.0719 98.4001 65.6879 98.4961 65.3279Z" fill="black"/>
<path d="M88.5599 80.664L85.9199 78.936C86.2799 79.776 86.9519 80.472 87.5999 81.264C87.9359 81.12 88.2479 80.904 88.5839 80.664H88.5599Z" fill="black"/>
<path d="M72.3119 91.9678C69.8399 91.7278 67.5359 91.2718 65.2559 90.5278C65.2079 91.3678 65.2559 92.2078 65.3519 92.9998C67.7279 93.6958 70.2239 94.1518 72.7919 94.3438L72.3359 91.9678H72.3119Z" fill="black"/>
<path d="M75.0001 45.2161C66.2641 45.2161 59.1841 52.2961 59.1841 61.0321C59.1841 69.7681 66.2641 76.8481 75.0001 76.8481C83.7361 76.8481 90.8161 69.7681 90.8161 61.0321C90.8161 52.2961 83.7361 45.2161 75.0001 45.2161ZM74.9521 75.0961C67.5361 75.0961 61.5361 68.8321 61.5361 61.1041C61.5361 53.3761 67.5361 47.1121 74.9521 47.1121C82.3681 47.1121 88.3681 53.3761 88.3681 61.1041C88.3681 68.8321 82.3681 75.0961 74.9521 75.0961Z" fill="black"/>
<path d="M77.3281 55.7278C77.3281 55.7278 77.8801 53.9998 80.0641 53.9278C82.2481 53.8318 83.1841 55.0318 83.1841 55.1278L83.3761 55.3678L83.0881 55.3198C83.0881 55.3198 81.8401 55.0798 80.2561 55.1758C78.2641 55.3198 77.5201 55.8718 77.5201 55.8718L77.2321 56.0638L77.3281 55.7278ZM77.3281 55.7278C77.3281 55.7278 77.8801 53.9998 80.0641 53.9278C82.2481 53.8318 83.1841 55.0318 83.1841 55.1278L83.3761 55.3678L83.0881 55.3198C83.0881 55.3198 81.8401 55.0798 80.2561 55.1758C78.2641 55.3198 77.5201 55.8718 77.5201 55.8718L77.2321 56.0638L77.3281 55.7278ZM75.0001 64.0798C76.3921 64.0798 76.8001 63.8398 76.8001 63.3358C76.8001 62.8318 76.7521 62.7838 76.7521 62.7838C76.7521 62.7838 77.1121 63.0238 77.2081 63.6238C77.3041 64.2718 76.7041 65.1598 74.9761 65.1598C73.2481 65.1598 72.6481 64.2718 72.7441 63.6238C72.7921 63.0238 73.2001 62.7838 73.2001 62.7838C73.2001 62.7838 73.1521 63.0718 73.1521 63.3358C73.1521 63.8398 73.5601 64.0798 74.9521 64.0798H75.0001ZM75.0001 64.0798C76.3921 64.0798 76.8001 63.8398 76.8001 63.3358C76.8001 62.8318 76.7521 62.7838 76.7521 62.7838C76.7521 62.7838 77.1121 63.0238 77.2081 63.6238C77.3041 64.2718 76.7041 65.1598 74.9761 65.1598C73.2481 65.1598 72.6481 64.2718 72.7441 63.6238C72.7921 63.0238 73.2001 62.7838 73.2001 62.7838C73.2001 62.7838 73.1521 63.0718 73.1521 63.3358C73.1521 63.8398 73.5601 64.0798 74.9521 64.0798H75.0001ZM66.7681 55.1278C66.8161 55.0798 67.6561 53.9278 69.6961 53.9278H69.8881C72.0721 54.0238 72.6241 55.7278 72.6241 55.7278L72.7201 56.0638L72.4321 55.8718C72.4321 55.8718 71.6881 55.3678 69.6961 55.1758C68.1121 55.0318 66.8641 55.2718 66.8641 55.3198L66.5761 55.3678L66.7681 55.1278ZM66.7681 55.1278C66.8161 55.0798 67.6561 53.9278 69.6961 53.9278H69.8881C72.0721 54.0238 72.6241 55.7278 72.6241 55.7278L72.7201 56.0638L72.4321 55.8718C72.4321 55.8718 71.6881 55.3678 69.6961 55.1758C68.1121 55.0318 66.8641 55.2718 66.8641 55.3198L66.5761 55.3678L66.7681 55.1278ZM66.8161 66.2638C66.0721 66.5998 65.0401 65.9278 64.5841 64.7758C64.1281 63.6718 64.3441 62.4958 65.1361 62.1838C65.8801 61.8478 66.9121 62.5198 67.3681 63.6718C67.8241 64.8238 67.6081 65.9998 66.8161 66.2638ZM66.8161 66.2638C66.0721 66.5998 65.0401 65.9278 64.5841 64.7758C64.1281 63.6718 64.3441 62.4958 65.1361 62.1838C65.8801 61.8478 66.9121 62.5198 67.3681 63.6718C67.8241 64.8238 67.6081 65.9998 66.8161 66.2638ZM68.1601 58.9678C68.1601 58.7758 68.2081 58.6318 68.2081 58.6078C68.2561 58.2478 67.7041 58.1518 67.1761 58.2478C66.9361 58.2958 66.6241 58.3438 66.0961 58.5358C65.8081 58.6318 65.4481 58.8718 65.4481 58.8718C65.9521 57.7918 67.2961 57.0238 68.9761 56.8798C71.1601 56.6878 73.0561 57.7678 73.2001 59.3038C73.2481 59.5918 73.2001 59.8558 73.1041 60.1438C73.1041 60.1438 73.1041 59.8558 73.0081 59.6398C72.9601 59.5438 72.9601 59.4958 72.9121 59.3998C72.6721 58.8958 72.1681 58.3678 71.4721 58.1998C70.4881 57.9598 70.0801 58.3438 70.0801 58.3438C69.9841 58.4398 69.8881 58.5838 69.8881 58.7038C69.8881 58.9918 70.1281 59.2078 70.3921 59.2078C70.6561 59.2078 70.8001 59.0638 70.8481 58.8718V59.0158C70.8481 59.7598 70.2481 60.3118 69.5041 60.3118C68.7121 60.3598 68.1601 59.7598 68.1121 59.0158L68.1601 58.9678ZM70.1281 58.2718C70.0321 58.3678 69.9361 58.5118 69.9361 58.6318C69.9361 58.9198 70.1761 59.1358 70.4401 59.1358C70.7041 59.1358 70.8481 58.9918 70.8961 58.7998V58.9438C70.8961 59.6878 70.2961 60.2398 69.5521 60.2398C68.7601 60.2878 68.2081 59.6878 68.1601 58.9438C68.1601 58.7518 68.2081 58.6078 68.2081 58.5838C68.2561 58.2238 67.7041 58.1278 67.1761 58.2238C66.9361 58.2718 66.6241 58.3198 66.0961 58.5118C65.8081 58.6078 65.4481 58.8478 65.4481 58.8478C65.9521 57.7678 67.2961 56.9998 68.9761 56.8558C71.1601 56.6638 73.0561 57.7438 73.2001 59.2798C73.2481 59.5678 73.2001 59.8318 73.1041 60.1198C73.1041 60.1198 73.1041 59.8318 73.0081 59.6158C72.9601 59.5198 72.9601 59.4718 72.9121 59.3758C72.6721 58.8718 72.1681 58.3438 71.4721 58.1758C70.4881 57.9358 70.0801 58.3198 70.0801 58.3198M75.9361 70.4398C75.6961 70.5838 75.4321 70.6798 75.0481 70.6798C74.6641 70.6798 74.3521 70.5838 74.1121 70.4398C73.8721 70.2958 73.7521 70.1518 73.7521 70.1518C73.7521 70.1518 73.9441 70.1038 74.1601 70.0558C74.3761 70.0078 74.7121 70.0078 75.0001 70.0078C75.2881 70.0078 75.6001 70.0078 75.8401 70.0558C76.0801 70.1038 76.2481 70.1518 76.2481 70.1518C76.2481 70.1518 76.1521 70.2958 75.9121 70.4398H75.9361ZM75.9361 70.4398C75.6961 70.5838 75.4321 70.6798 75.0481 70.6798C74.6641 70.6798 74.3521 70.5838 74.1121 70.4398C73.8721 70.2958 73.7521 70.1518 73.7521 70.1518C73.7521 70.1518 73.9441 70.1038 74.1601 70.0558C74.3761 70.0078 74.7121 70.0078 75.0001 70.0078C75.2881 70.0078 75.6001 70.0078 75.8401 70.0558C76.0801 70.1038 76.2481 70.1518 76.2481 70.1518C76.2481 70.1518 76.1521 70.2958 75.9121 70.4398H75.9361ZM79.4161 66.9118C78.3361 68.2558 76.7281 69.0478 75.0001 69.0478C73.2721 69.0478 71.6641 68.2558 70.5841 66.9118L70.2961 66.5758L70.6561 66.7198C72.0481 67.2238 73.4881 67.5118 74.9281 67.5118C76.3681 67.5118 77.8561 67.2238 79.2001 66.7198L79.5601 66.5758L79.3681 66.9118H79.4161ZM79.4161 66.9118C78.3361 68.2558 76.7281 69.0478 75.0001 69.0478C73.2721 69.0478 71.6641 68.2558 70.5841 66.9118L70.2961 66.5758L70.6561 66.7198C72.0481 67.2238 73.4881 67.5118 74.9281 67.5118C76.3681 67.5118 77.8561 67.2238 79.2001 66.7198L79.5601 66.5758L79.3681 66.9118H79.4161ZM81.0481 58.2718C80.9521 58.3678 80.8561 58.5118 80.8561 58.6318C80.8561 58.9198 81.0961 59.1358 81.3601 59.1358C81.6241 59.1358 81.7201 58.9918 81.8161 58.7998V58.8958C81.8161 59.6398 81.2161 60.2398 80.4721 60.2398C79.7281 60.2398 79.2241 59.6878 79.1281 59.0398C79.1281 59.0398 79.1281 58.9918 79.0801 58.8478C79.0321 58.4878 78.7441 58.4398 78.3361 58.4878C78.0001 58.5358 77.7361 58.6798 77.4001 59.1358C77.0401 59.6878 76.7041 61.6558 76.7041 61.6558V59.1358C76.7521 57.6478 78.6961 56.5918 80.9281 56.7598C82.6081 56.9038 83.9521 57.7438 84.4561 58.7518L84.0001 58.5118C83.3041 58.1758 82.6561 58.0558 81.9601 58.0078C81.2161 57.9598 81.0241 58.2478 81.0241 58.2478L81.0481 58.2718ZM81.0481 58.2718C80.9521 58.3678 80.8561 58.5118 80.8561 58.6318C80.8561 58.9198 81.0961 59.1358 81.3601 59.1358C81.6241 59.1358 81.7201 58.9918 81.8161 58.7998V58.8958C81.8161 59.6398 81.2161 60.2398 80.4721 60.2398C79.7281 60.2398 79.2241 59.6878 79.1281 59.0398C79.1281 59.0398 79.1281 58.9918 79.0801 58.8478C79.0321 58.4878 78.7441 58.4398 78.3361 58.4878C78.0001 58.5358 77.7361 58.6798 77.4001 59.1358C77.0401 59.6878 76.7041 61.6558 76.7041 61.6558V59.1358C76.7521 57.6478 78.6961 56.5918 80.9281 56.7598C82.6081 56.9038 83.9521 57.7438 84.4561 58.7518L84.0001 58.5118C83.3041 58.1758 82.6561 58.0558 81.9601 58.0078C81.2161 57.9598 81.0241 58.2478 81.0241 58.2478M83.1841 66.2638C82.4401 65.9278 82.1521 64.7758 82.6321 63.6718C83.1121 62.5678 84.0721 61.8958 84.8641 62.1838C85.6081 62.5198 85.8961 63.6718 85.4161 64.7758C84.9121 65.9278 83.9281 66.5758 83.1841 66.2638ZM83.1841 66.2638C82.4401 65.9278 82.1521 64.7758 82.6321 63.6718C83.1121 62.5678 84.0721 61.8958 84.8641 62.1838C85.6081 62.5198 85.8961 63.6718 85.4161 64.7758C84.9121 65.9278 83.9281 66.5758 83.1841 66.2638Z" fill="black"/>
<path d="M79.9681 40.68C80.5681 39.288 80.2081 37.608 80.7601 35.712L75.0481 17.688L75.3361 19.128L79.9921 40.68H79.9681Z" fill="black"/>
<path d="M87.3598 38.0159C87.8158 39.8159 87.8158 41.1359 87.6958 41.9759L90.5758 40.1279C90.1198 39.2879 89.5438 38.3999 89.2798 37.1039C88.6798 34.0799 91.1278 31.4399 91.1278 31.4399C88.8958 32.8799 86.7598 35.6639 87.3598 38.0399V38.0159Z" fill="black"/>
<path d="M95.9041 47.9279C95.9521 47.8799 96.0001 47.8319 96.0481 47.7839C96.1921 47.6879 96.288 47.5919 96.456 47.4959C96.792 47.2559 97.152 47.0879 97.536 46.9439L105.672 30.3599L92.9041 50.1599C94.0081 49.7039 94.8481 48.7679 95.9281 47.9279H95.9041Z" fill="black"/>
<path d="M100.032 53.5441C99.0478 55.1761 98.1838 56.0641 97.4878 56.5681L100.56 57.2161H100.656C101.256 56.0641 101.4 54.6721 102.096 53.5441C103.248 51.7441 107.4 51.5041 107.4 51.5041C104.76 50.9521 101.304 51.4081 100.056 53.5441H100.032Z" fill="black"/>
<path d="M95.3999 66.0241C97.2479 66.8161 99.5759 65.9281 102.24 67.7521C102.24 67.7521 102.528 67.9441 102.528 67.9921L116.088 61.6321L95.4239 66.0481L95.3999 66.0241Z" fill="black"/>
<path d="M99.24 75.8401C102.456 75.2881 104.16 76.6321 104.352 76.8721C103.944 76.3201 103.464 75.7921 102.96 75.2881C101.52 73.9441 99.672 73.0561 97.992 73.4401C96.192 73.8961 94.872 73.8961 94.032 73.7761L95.88 76.6081C97.128 76.5601 98.16 76.0561 99.216 75.8641L99.24 75.8401Z" fill="black"/>
<path d="M89.0879 81.0481L85.9199 79.0081C86.7119 80.9041 89.0879 81.9841 89.5919 85.3681V85.4161L103.632 90.4321L89.0879 81.0481Z" fill="black"/>
<path d="M82.5359 86.1119C80.9039 85.1279 80.0159 84.2639 79.5119 83.5679L78.8159 86.8559C79.4639 87.4079 80.7119 87.5519 81.5999 88.1999C84.5279 90.1919 84.6239 92.9279 84.6239 93.0239C85.0799 90.4799 84.5759 87.3119 82.5359 86.1119Z" fill="black"/>
<path d="M70.0798 40.68C69.4798 39.288 69.8398 37.608 69.2878 35.712L74.9998 17.688L74.7118 19.128L70.0558 40.68H70.0798Z" fill="black"/>
<path d="M62.6401 38.0159C62.1841 39.8159 62.1841 41.1359 62.3041 41.9759L59.4241 40.1279C59.8801 39.2879 60.4561 38.3999 60.7201 37.1039C61.3201 34.0799 58.8721 31.4399 58.8721 31.4399C61.1041 32.8799 63.2401 35.6639 62.6401 38.0399V38.0159Z" fill="black"/>
<path d="M54.096 47.9279L53.952 47.7839C53.808 47.6879 53.712 47.5919 53.544 47.4959C53.208 47.2559 52.848 47.0879 52.464 46.9439L44.28 30.3599L57.048 50.1599C55.968 49.7039 55.2 48.7679 54.072 47.9279H54.096Z" fill="black"/>
<path d="M50.0159 53.5441C50.9999 55.1761 51.8639 56.0641 52.5599 56.5681L49.4879 57.2161H49.392C48.792 56.0641 48.648 54.6721 47.952 53.5441C46.8 51.7441 42.6479 51.5041 42.6479 51.5041C45.2399 50.9521 48.696 51.4081 49.992 53.5441H50.0159Z" fill="black"/>
<path d="M54.6 66.024C52.752 66.816 50.424 65.928 47.76 67.752C47.76 67.752 47.472 67.944 47.472 67.992L33.864 61.584L54.576 66.048L54.6 66.024Z" fill="black"/>
<path d="M50.7599 75.8401C47.544 75.2881 45.8399 76.6321 45.6479 76.8721C46.0559 76.3201 46.5359 75.7921 47.0399 75.2881C48.4799 73.9441 50.3279 73.0561 52.0079 73.4401C53.8079 73.8961 55.1279 73.8961 55.9679 73.7761L54.1199 76.6081C52.9199 76.5601 51.84 76.0561 50.784 75.8641L50.7599 75.8401Z" fill="black"/>
<path d="M60.9119 81.0481L64.0799 79.0081C63.2879 80.9041 60.9119 81.9841 60.4079 85.3681V85.4161L46.3679 90.4321L60.9119 81.0481Z" fill="black"/>
<path d="M67.4639 86.1119C69.0959 85.1279 69.9839 84.2639 70.4879 83.5679L71.1839 86.8559C70.5359 87.4079 69.2879 87.5519 68.3999 88.1999C65.4719 90.1919 65.3759 92.9279 65.3759 93.0239C64.9679 90.4799 65.4719 87.3119 67.4639 86.1119Z" fill="black"/>
<path d="M75 65.1601C73.8 65.1601 73.152 64.7521 72.864 64.2241C73.056 64.8241 73.56 65.6161 75 65.6161C76.44 65.6161 76.944 64.7761 77.136 64.2241C77.136 64.2241 77.136 64.2721 77.088 64.2721C76.848 64.6801 76.2 65.1601 75 65.1601Z" fill="black"/>
<path d="M75.936 70.4399C75.696 70.5839 75.432 70.6799 75.048 70.6799C74.664 70.6799 74.352 70.5839 74.112 70.4399C73.872 70.2959 73.752 70.1519 73.752 70.1519C73.752 70.1519 73.896 71.1359 75 71.1359C76.104 71.1359 76.248 70.1519 76.248 70.1519C76.248 70.1519 76.152 70.2959 75.912 70.4399H75.936Z" fill="black"/>
<path d="M103.608 96.5042H104.592V96.7442H104.232V97.7761H103.944V96.7442H103.608V96.5042ZM105.984 96.5042V97.7521H105.696V97.0082L105.408 97.7521H105.168L104.88 97.0082V97.8001H104.688V96.5521H104.976L105.336 97.5361L105.672 96.5521H105.96V96.5042H105.984Z" fill="black"/>
</svg>
