<svg width="34" height="34" fill="none" xmlns="http://www.w3.org/2000/svg">
  <g clip-path="url(#a)">
    <path d="M25.686 1H8.314A7.314 7.314 0 0 0 1 8.314v17.372A7.314 7.314 0 0 0 8.314 33h17.372A7.314 7.314 0 0 0 33 25.686V8.314A7.314 7.314 0 0 0 25.686 1Z" fill="#fff"/>
    <path d="M25.686.543H8.314A7.771 7.771 0 0 0 .543 8.314v17.372a7.771 7.771 0 0 0 7.771 7.771h17.372a7.771 7.771 0 0 0 7.771-7.771V8.314A7.771 7.771 0 0 0 25.686.543Z" stroke="#A69171" stroke-opacity=".2" stroke-width=".914"/>
    <path d="m8.844 14.882 8.1 5.542v-6.85L8.845 8v6.882Z" fill="#0061FE"/>
    <path d="m25.046 8-8.101 5.574v6.85l8.101-5.542V8Z" fill="#1E1919"/>
    <path d="m25.046 19.118-8.101-5.542v6.85L25.046 26v-6.882Z" fill="#0061FE"/>
    <path d="m8.844 26 8.1-5.574v-6.85l-8.1 5.542V26Z" fill="#1E1919"/>
  </g>
  <defs>
    <clipPath id="a">
      <path fill="#fff" d="M0 0h34v34H0z"/>
    </clipPath>
  </defs>
</svg>
