<svg width="150" height="150" viewBox="0 0 150 150" fill="none" xmlns="http://www.w3.org/2000/svg">
<g style="mix-blend-mode:multiply">
<path d="M11.0756 66.3565C11.1025 66.8272 11.4925 67.1904 11.9498 67.1904C12.407 67.1904 12.797 66.8272 12.8239 66.3565L13.2543 58.7446C13.2812 58.3815 13.1467 58.0049 12.8777 57.7225C12.6222 57.467 12.286 57.3325 11.9498 57.3325C11.6136 57.3325 11.2773 57.467 11.0218 57.7225C10.7394 58.0049 10.6184 58.3815 10.6453 58.7446L11.0756 66.3565Z" fill="white"/>
<path d="M15.8365 70.4181C15.4196 70.176 14.8816 70.324 14.6396 70.7409C14.1016 71.6688 13.093 72.3009 11.9364 72.3009C10.7798 72.3009 9.77116 71.6688 9.23321 70.7409C8.99114 70.324 8.4532 70.176 8.03629 70.4181C7.61938 70.6602 7.47145 71.1981 7.71352 71.615C8.54734 73.0675 10.1208 74.0492 11.9229 74.0492C13.7251 74.0492 15.2985 73.0675 16.1324 71.615C16.4013 71.1981 16.2668 70.6602 15.8365 70.4181Z" fill="white"/>
<path d="M8.34552 67.0962C8.49346 67.54 8.96416 67.7955 9.40796 67.6744C9.85177 67.5534 10.1342 67.1096 10.0401 66.6524L8.65484 59.9818C8.5876 59.6456 8.37242 59.3229 8.04966 59.1346C7.74034 58.9597 7.40412 58.9194 7.0948 59.0135C6.78549 59.0942 6.50306 59.296 6.32823 59.6053C6.13995 59.928 6.11305 60.3046 6.22064 60.6408L8.34552 67.0962Z" fill="white"/>
<path d="M6.0459 68.6293C6.30143 69.0194 6.81248 69.1404 7.21594 68.9118C7.61939 68.6831 7.76733 68.1721 7.55215 67.7552L4.86243 62.4161C4.71449 62.1202 4.43207 61.8781 4.08241 61.784C3.75964 61.7033 3.42342 61.7437 3.15445 61.905C2.88548 62.0664 2.6703 62.3219 2.58961 62.6447C2.49547 62.9944 2.56271 63.3575 2.75099 63.6265L6.0459 68.6293Z" fill="white"/>
<path d="M14.4916 67.6746C14.9354 67.7956 15.4061 67.5401 15.5541 67.0963L17.6924 60.6275C17.8 60.2913 17.7731 59.9148 17.5848 59.592C17.41 59.2961 17.1276 59.0809 16.8182 59.0002C16.5089 58.9196 16.1593 58.9465 15.8634 59.1213C15.5406 59.3096 15.3254 59.6189 15.2582 59.9685L13.873 66.6391C13.7654 67.0963 14.0478 67.5536 14.4916 67.6746Z" fill="white"/>
<path d="M16.6837 68.9119C17.0872 69.1405 17.5982 69.0195 17.8538 68.6295L21.1352 63.6266C21.3235 63.3442 21.3908 62.9945 21.2966 62.6448C21.2159 62.3221 21.0007 62.0665 20.7318 61.9052C20.4628 61.7438 20.1266 61.69 19.8038 61.7841C19.4542 61.8783 19.1852 62.1203 19.0238 62.4162L16.3341 67.7553C16.1323 68.1722 16.2803 68.6698 16.6837 68.9119Z" fill="white"/>
<path d="M23.6636 89.5554L18.9835 83.3422C18.1362 82.2259 17.6521 80.8407 17.6521 79.3614C17.6521 77.8955 18.1362 76.4968 18.9835 75.3806L23.6636 69.1673C24.1478 68.3335 23.8654 67.2576 23.0181 66.7735C22.1843 66.2893 21.1084 66.5717 20.6242 67.419L17.7059 72.4891C16.4821 74.614 14.2496 75.811 11.9499 75.7975C9.65016 75.811 7.41768 74.614 6.19386 72.4891L3.27551 67.419C2.79136 66.5852 1.71547 66.2893 0.881652 66.7735C0.0478377 67.2576 -0.24803 68.3335 0.23612 69.1673L4.91624 75.3806C5.7635 76.4968 6.24765 77.882 6.24765 79.3614C6.24765 80.8273 5.7635 82.2259 4.91624 83.3422L0.23612 89.5554C-0.24803 90.3893 0.034389 91.4651 0.881652 91.9493C1.71547 92.4334 2.79136 92.151 3.27551 91.3038L6.19386 86.2471C7.41768 84.1222 9.66361 82.9253 11.9499 82.9387C14.2496 82.9253 16.4821 84.1222 17.7059 86.2471L20.6242 91.3172C21.1084 92.151 22.1843 92.4469 23.0181 91.9627C23.8519 91.4652 24.1478 90.3893 23.6636 89.5554Z" fill="white"/>
<path d="M148.279 76.8061C148.453 76.8061 148.615 76.7255 148.615 76.4699C148.615 76.2279 148.48 76.1337 148.279 76.1337H147.646V76.7927H148.279V76.8061ZM149.032 77.9358H148.561L148.171 77.1827H147.646V77.9358H147.243V75.7841H148.279C148.736 75.7841 149.018 76.0665 149.018 76.4834C149.018 76.7927 148.843 77.0482 148.574 77.1424L149.032 77.9358ZM148.036 75.2999C147.176 75.2999 146.463 76.0127 146.463 76.9003C146.463 77.7879 147.162 78.5007 148.036 78.5007C148.911 78.5007 149.61 77.7879 149.61 76.9003C149.61 76.0127 148.897 75.2999 148.036 75.2999ZM148.036 78.8503C146.947 78.8503 146.073 77.9762 146.073 76.8868C146.073 75.8109 146.947 74.9233 148.036 74.9233C149.126 74.9233 150 75.7975 150 76.8868C150 77.9762 149.112 78.8503 148.036 78.8503Z" fill="white"/>
<path d="M127.985 80.0743C126.559 79.8456 125.698 79.6439 125.698 79.0387C125.698 78.6084 126.263 78.1242 127.622 78.1242C128.428 78.1242 128.993 78.3528 129.303 78.6891C129.518 78.9177 129.867 78.9984 130.177 78.9177L131.898 78.447C132.167 78.3797 132.302 78.0704 132.167 77.8283C131.374 76.3759 129.706 75.4883 127.622 75.4883C124.286 75.4883 122.699 77.3711 122.699 79.1867C122.699 81.7553 125.456 82.3202 127.514 82.6295C129.531 82.9388 129.935 83.2078 129.935 83.8533C129.935 84.5258 129.034 84.8889 127.85 84.8889C127.137 84.8889 126.223 84.6468 125.685 84.0282C125.456 83.7592 125.093 83.6247 124.744 83.7188L123.036 84.1761C122.78 84.2433 122.632 84.5258 122.753 84.7813C123.547 86.5296 125.443 87.5786 127.85 87.5786C130.809 87.5786 132.907 85.9648 132.907 83.6785C132.907 81.1636 130.849 80.545 127.985 80.0743Z" fill="white"/>
<path d="M101.303 78.2048H95.1296V74.5065H102.782C103.051 74.5065 103.279 74.2913 103.279 74.0089V72.2605C103.279 71.9916 103.051 71.7629 102.782 71.7629H92.6685C92.3995 71.7629 92.1709 71.9916 92.1709 72.2605V86.7985C92.1709 87.0675 92.3995 87.2961 92.6685 87.2961H94.632C94.901 87.2961 95.1296 87.0675 95.1296 86.7985V80.9618H101.303C101.571 80.9618 101.8 80.7466 101.8 80.4642V78.7024C101.8 78.42 101.571 78.2048 101.303 78.2048Z" fill="white"/>
<path d="M107.704 72.2605C107.704 71.9916 107.475 71.7629 107.206 71.7629H105.243C104.974 71.7629 104.745 71.9781 104.745 72.2605V86.7985C104.745 87.0675 104.961 87.2961 105.243 87.2961H107.206C107.475 87.2961 107.704 87.0809 107.704 86.7985V72.2605Z" fill="white"/>
<path d="M115.114 84.8081C113.487 84.8081 112.156 83.396 112.156 81.567C112.156 79.6842 113.473 78.2586 115.114 78.2586C116.742 78.2586 118.073 79.738 118.073 81.567C118.059 83.3557 116.742 84.8081 115.114 84.8081ZM120.521 75.7706H118.692C118.423 75.7706 118.194 75.9858 118.194 76.2682V77.0079C117.293 76.0665 116.069 75.5286 114.657 75.5286C111.658 75.5286 109.17 78.1241 109.17 81.5535C109.17 84.956 111.658 87.5516 114.657 87.5516C116.069 87.5516 117.293 87.0137 118.194 86.0723V86.812C118.194 87.0809 118.409 87.3096 118.692 87.3096H120.521C120.79 87.3096 121.018 87.0944 121.018 86.812V76.2817C121.018 75.9858 120.79 75.7706 120.521 75.7706Z" fill="white"/>
<path d="M140.922 80.2625L144.526 76.4969C144.782 76.2279 144.594 75.7706 144.217 75.7706H141.554C141.299 75.7706 141.043 75.8782 140.882 76.0665L137.372 79.9532V72.2605C137.372 71.9781 137.143 71.7629 136.874 71.7629H134.924C134.642 71.7629 134.427 71.9916 134.427 72.2605V86.7985C134.427 87.0675 134.642 87.2961 134.924 87.2961H136.888C137.157 87.2961 137.385 87.0809 137.385 86.7985V83.9877L138.865 82.4411L141.46 86.8523C141.622 87.1347 141.917 87.2961 142.24 87.2961H144.647C145.011 87.2961 145.226 86.8926 145.024 86.5968L140.922 80.2625Z" fill="white"/>
<path d="M40.851 72.2605C40.851 71.9916 40.6224 71.7629 40.3535 71.7629H38.39C38.121 71.7629 37.8924 71.9781 37.8924 72.2605L37.8789 78.151H31.2622L31.2756 72.2605C31.2756 71.9916 31.0605 71.7629 30.778 71.7629H28.7876C28.5187 71.7629 28.29 71.9781 28.29 72.2605V86.7985C28.29 87.0675 28.5187 87.2961 28.7876 87.2961H30.778C31.047 87.2961 31.2756 87.0675 31.2756 86.7985L31.2622 80.908H37.8789L37.8924 86.7985C37.8924 87.0675 38.121 87.2961 38.39 87.2961H40.3535C40.6224 87.2961 40.851 87.0809 40.851 86.7985V72.2605Z" fill="white"/>
<path d="M60.1228 84.8081C58.4955 84.8081 57.1641 83.396 57.1641 81.567C57.1641 79.6842 58.482 78.2586 60.1228 78.2586C61.7635 78.2586 63.0815 79.738 63.0815 81.567C63.068 83.3557 61.75 84.8081 60.1228 84.8081ZM66.0267 72.2605C66.0267 71.9916 65.7981 71.7629 65.5291 71.7629H63.5656C63.2966 71.7629 63.068 71.9781 63.068 72.2605V76.8734C62.1669 76.0262 61.0104 75.5286 59.6655 75.5286C56.6665 75.5286 54.1785 78.1241 54.1785 81.5535C54.1785 84.956 56.6665 87.5516 59.6655 87.5516C61.0776 87.5516 62.288 87.0137 63.2025 86.0723V86.8119C63.2025 87.0809 63.4177 87.3095 63.7001 87.3095H65.5291C65.7981 87.3095 66.0267 87.0944 66.0267 86.8119V72.2605Z" fill="white"/>
<path d="M73.9479 75.4881C72.7241 75.4208 71.5272 75.8646 70.6934 76.9002V76.2546C70.6934 75.9857 70.4782 75.757 70.1958 75.757H68.3667C68.0978 75.757 67.8691 75.9857 67.8691 76.2546V86.7849C67.8691 87.0539 68.0843 87.2825 68.3667 87.2825H70.3302C70.5992 87.2825 70.8278 87.0539 70.8278 86.7849V81.6206C70.8278 80.7061 70.9354 79.7647 71.5675 79.1192C72.1324 78.514 72.9393 78.3257 73.8807 78.3661C74.1631 78.3795 74.4052 78.1509 74.4052 77.8685V75.9857C74.4052 75.7301 74.2034 75.5015 73.9479 75.4881Z" fill="white"/>
<path d="M80.4975 84.8483C78.9375 84.8483 77.6599 83.5034 77.6599 81.5534C77.6599 79.563 78.9375 78.1778 80.4975 78.1778C82.0576 78.1778 83.3352 79.563 83.3352 81.5534C83.3352 83.5034 82.0576 84.8483 80.4975 84.8483ZM80.4975 75.4746C77.2968 75.4746 74.7012 78.0971 74.7012 81.5399C74.7012 84.9828 77.2968 87.5649 80.4975 87.5649C83.6983 87.5649 86.3208 84.9962 86.3208 81.5399C86.3073 78.0971 83.6983 75.4746 80.4975 75.4746Z" fill="white"/>
<path d="M53.5599 75.7705H51.7309C51.4619 75.7705 51.2198 75.9319 51.1257 76.1874L48.3015 83.5304L45.4773 76.1874C45.3831 75.9319 45.1411 75.7705 44.8721 75.7705H43.0431C42.6934 75.7705 42.4513 76.1202 42.5858 76.4429L46.8087 87.4439L46.459 88.3719C46.0287 89.5016 45.41 89.9454 44.2535 89.9723C43.9845 89.9723 43.7559 90.1874 43.7559 90.4699V92.1644C43.7559 92.4334 43.971 92.6485 44.24 92.662C46.4052 92.7292 47.9653 92.2316 49.0681 89.394L54.0306 76.4429C54.1516 76.1067 53.9096 75.7705 53.5599 75.7705Z" fill="white"/>
<path d="M11.0756 66.3565C11.1025 66.8272 11.4925 67.1904 11.9498 67.1904C12.407 67.1904 12.797 66.8272 12.8239 66.3565L13.2543 58.7446C13.2812 58.3815 13.1467 58.0049 12.8777 57.7225C12.6222 57.467 12.286 57.3325 11.9498 57.3325C11.6136 57.3325 11.2773 57.467 11.0218 57.7225C10.7394 58.0049 10.6184 58.3815 10.6453 58.7446L11.0756 66.3565Z" fill="black"/>
<path d="M15.8365 70.4181C15.4196 70.176 14.8816 70.324 14.6396 70.7409C14.1016 71.6688 13.093 72.3009 11.9364 72.3009C10.7798 72.3009 9.77116 71.6688 9.23321 70.7409C8.99114 70.324 8.4532 70.176 8.03629 70.4181C7.61938 70.6602 7.47145 71.1981 7.71352 71.615C8.54734 73.0675 10.1208 74.0492 11.9229 74.0492C13.7251 74.0492 15.2985 73.0675 16.1324 71.615C16.4013 71.1981 16.2668 70.6602 15.8365 70.4181Z" fill="black"/>
<path d="M8.34552 67.0962C8.49346 67.54 8.96416 67.7955 9.40796 67.6744C9.85177 67.5534 10.1342 67.1096 10.0401 66.6524L8.65484 59.9818C8.5876 59.6456 8.37242 59.3229 8.04966 59.1346C7.74034 58.9597 7.40412 58.9194 7.0948 59.0135C6.78549 59.0942 6.50306 59.296 6.32823 59.6053C6.13995 59.928 6.11305 60.3046 6.22064 60.6408L8.34552 67.0962Z" fill="black"/>
<path d="M6.0459 68.6293C6.30143 69.0194 6.81248 69.1404 7.21594 68.9118C7.61939 68.6831 7.76733 68.1721 7.55215 67.7552L4.86243 62.4161C4.71449 62.1202 4.43207 61.8781 4.08241 61.784C3.75964 61.7033 3.42342 61.7437 3.15445 61.905C2.88548 62.0664 2.6703 62.3219 2.58961 62.6447C2.49547 62.9944 2.56271 63.3575 2.75099 63.6265L6.0459 68.6293Z" fill="black"/>
<path d="M14.4916 67.6746C14.9354 67.7956 15.4061 67.5401 15.5541 67.0963L17.6924 60.6275C17.8 60.2913 17.7731 59.9148 17.5848 59.592C17.41 59.2961 17.1276 59.0809 16.8182 59.0002C16.5089 58.9196 16.1593 58.9465 15.8634 59.1213C15.5406 59.3096 15.3254 59.6189 15.2582 59.9685L13.873 66.6391C13.7654 67.0963 14.0478 67.5536 14.4916 67.6746Z" fill="black"/>
<path d="M16.6837 68.9119C17.0872 69.1405 17.5982 69.0195 17.8538 68.6295L21.1352 63.6266C21.3235 63.3442 21.3908 62.9945 21.2966 62.6448C21.2159 62.3221 21.0007 62.0665 20.7318 61.9052C20.4628 61.7438 20.1266 61.69 19.8038 61.7841C19.4542 61.8783 19.1852 62.1203 19.0238 62.4162L16.3341 67.7553C16.1323 68.1722 16.2803 68.6698 16.6837 68.9119Z" fill="black"/>
<path d="M23.6636 89.5554L18.9835 83.3422C18.1362 82.2259 17.6521 80.8407 17.6521 79.3614C17.6521 77.8955 18.1362 76.4968 18.9835 75.3806L23.6636 69.1673C24.1478 68.3335 23.8654 67.2576 23.0181 66.7735C22.1843 66.2893 21.1084 66.5717 20.6242 67.419L17.7059 72.4891C16.4821 74.614 14.2496 75.811 11.9499 75.7975C9.65016 75.811 7.41768 74.614 6.19386 72.4891L3.27551 67.419C2.79136 66.5852 1.71547 66.2893 0.881652 66.7735C0.0478377 67.2576 -0.24803 68.3335 0.23612 69.1673L4.91624 75.3806C5.7635 76.4968 6.24765 77.882 6.24765 79.3614C6.24765 80.8273 5.7635 82.2259 4.91624 83.3422L0.23612 89.5554C-0.24803 90.3893 0.034389 91.4651 0.881652 91.9493C1.71547 92.4334 2.79136 92.151 3.27551 91.3038L6.19386 86.2471C7.41768 84.1222 9.66361 82.9253 11.9499 82.9387C14.2496 82.9253 16.4821 84.1222 17.7059 86.2471L20.6242 91.3172C21.1084 92.151 22.1843 92.4469 23.0181 91.9627C23.8519 91.4652 24.1478 90.3893 23.6636 89.5554Z" fill="black"/>
<path d="M148.279 76.8061C148.453 76.8061 148.615 76.7255 148.615 76.4699C148.615 76.2279 148.48 76.1337 148.279 76.1337H147.646V76.7927H148.279V76.8061ZM149.032 77.9358H148.561L148.171 77.1827H147.646V77.9358H147.243V75.7841H148.279C148.736 75.7841 149.018 76.0665 149.018 76.4834C149.018 76.7927 148.843 77.0482 148.574 77.1424L149.032 77.9358ZM148.036 75.2999C147.176 75.2999 146.463 76.0127 146.463 76.9003C146.463 77.7879 147.162 78.5007 148.036 78.5007C148.911 78.5007 149.61 77.7879 149.61 76.9003C149.61 76.0127 148.897 75.2999 148.036 75.2999ZM148.036 78.8503C146.947 78.8503 146.073 77.9762 146.073 76.8868C146.073 75.8109 146.947 74.9233 148.036 74.9233C149.126 74.9233 150 75.7975 150 76.8868C150 77.9762 149.112 78.8503 148.036 78.8503Z" fill="black"/>
<path d="M127.985 80.0743C126.559 79.8456 125.698 79.6439 125.698 79.0387C125.698 78.6084 126.263 78.1242 127.622 78.1242C128.428 78.1242 128.993 78.3528 129.303 78.6891C129.518 78.9177 129.867 78.9984 130.177 78.9177L131.898 78.447C132.167 78.3797 132.302 78.0704 132.167 77.8283C131.374 76.3759 129.706 75.4883 127.622 75.4883C124.286 75.4883 122.699 77.3711 122.699 79.1867C122.699 81.7553 125.456 82.3202 127.514 82.6295C129.531 82.9388 129.935 83.2078 129.935 83.8533C129.935 84.5258 129.034 84.8889 127.85 84.8889C127.137 84.8889 126.223 84.6468 125.685 84.0282C125.456 83.7592 125.093 83.6247 124.744 83.7188L123.036 84.1761C122.78 84.2433 122.632 84.5258 122.753 84.7813C123.547 86.5296 125.443 87.5786 127.85 87.5786C130.809 87.5786 132.907 85.9648 132.907 83.6785C132.907 81.1636 130.849 80.545 127.985 80.0743Z" fill="black"/>
<path d="M101.303 78.2048H95.1296V74.5065H102.782C103.051 74.5065 103.279 74.2913 103.279 74.0089V72.2605C103.279 71.9916 103.051 71.7629 102.782 71.7629H92.6685C92.3995 71.7629 92.1709 71.9916 92.1709 72.2605V86.7985C92.1709 87.0675 92.3995 87.2961 92.6685 87.2961H94.632C94.901 87.2961 95.1296 87.0675 95.1296 86.7985V80.9618H101.303C101.571 80.9618 101.8 80.7466 101.8 80.4642V78.7024C101.8 78.42 101.571 78.2048 101.303 78.2048Z" fill="black"/>
<path d="M107.704 72.2605C107.704 71.9916 107.475 71.7629 107.206 71.7629H105.243C104.974 71.7629 104.745 71.9781 104.745 72.2605V86.7985C104.745 87.0675 104.961 87.2961 105.243 87.2961H107.206C107.475 87.2961 107.704 87.0809 107.704 86.7985V72.2605Z" fill="black"/>
<path d="M115.114 84.8081C113.487 84.8081 112.156 83.396 112.156 81.567C112.156 79.6842 113.473 78.2586 115.114 78.2586C116.742 78.2586 118.073 79.738 118.073 81.567C118.059 83.3557 116.742 84.8081 115.114 84.8081ZM120.521 75.7706H118.692C118.423 75.7706 118.194 75.9858 118.194 76.2682V77.0079C117.293 76.0665 116.069 75.5286 114.657 75.5286C111.658 75.5286 109.17 78.1241 109.17 81.5535C109.17 84.956 111.658 87.5516 114.657 87.5516C116.069 87.5516 117.293 87.0137 118.194 86.0723V86.812C118.194 87.0809 118.409 87.3096 118.692 87.3096H120.521C120.79 87.3096 121.018 87.0944 121.018 86.812V76.2817C121.018 75.9858 120.79 75.7706 120.521 75.7706Z" fill="black"/>
<path d="M140.922 80.2625L144.526 76.4969C144.782 76.2279 144.594 75.7706 144.217 75.7706H141.554C141.299 75.7706 141.043 75.8782 140.882 76.0665L137.372 79.9532V72.2605C137.372 71.9781 137.143 71.7629 136.874 71.7629H134.924C134.642 71.7629 134.427 71.9916 134.427 72.2605V86.7985C134.427 87.0675 134.642 87.2961 134.924 87.2961H136.888C137.157 87.2961 137.385 87.0809 137.385 86.7985V83.9877L138.865 82.4411L141.46 86.8523C141.622 87.1347 141.917 87.2961 142.24 87.2961H144.647C145.011 87.2961 145.226 86.8926 145.024 86.5968L140.922 80.2625Z" fill="black"/>
<path d="M40.851 72.2605C40.851 71.9916 40.6224 71.7629 40.3535 71.7629H38.39C38.121 71.7629 37.8924 71.9781 37.8924 72.2605L37.8789 78.151H31.2622L31.2756 72.2605C31.2756 71.9916 31.0605 71.7629 30.778 71.7629H28.7876C28.5187 71.7629 28.29 71.9781 28.29 72.2605V86.7985C28.29 87.0675 28.5187 87.2961 28.7876 87.2961H30.778C31.047 87.2961 31.2756 87.0675 31.2756 86.7985L31.2622 80.908H37.8789L37.8924 86.7985C37.8924 87.0675 38.121 87.2961 38.39 87.2961H40.3535C40.6224 87.2961 40.851 87.0809 40.851 86.7985V72.2605Z" fill="black"/>
<path d="M60.1228 84.8081C58.4955 84.8081 57.1641 83.396 57.1641 81.567C57.1641 79.6842 58.482 78.2586 60.1228 78.2586C61.7635 78.2586 63.0815 79.738 63.0815 81.567C63.068 83.3557 61.75 84.8081 60.1228 84.8081ZM66.0267 72.2605C66.0267 71.9916 65.7981 71.7629 65.5291 71.7629H63.5656C63.2966 71.7629 63.068 71.9781 63.068 72.2605V76.8734C62.1669 76.0262 61.0104 75.5286 59.6655 75.5286C56.6665 75.5286 54.1785 78.1241 54.1785 81.5535C54.1785 84.956 56.6665 87.5516 59.6655 87.5516C61.0776 87.5516 62.288 87.0137 63.2025 86.0723V86.8119C63.2025 87.0809 63.4177 87.3095 63.7001 87.3095H65.5291C65.7981 87.3095 66.0267 87.0944 66.0267 86.8119V72.2605Z" fill="black"/>
<path d="M73.9479 75.4881C72.7241 75.4208 71.5272 75.8646 70.6934 76.9002V76.2546C70.6934 75.9857 70.4782 75.757 70.1958 75.757H68.3667C68.0978 75.757 67.8691 75.9857 67.8691 76.2546V86.7849C67.8691 87.0539 68.0843 87.2825 68.3667 87.2825H70.3302C70.5992 87.2825 70.8278 87.0539 70.8278 86.7849V81.6206C70.8278 80.7061 70.9354 79.7647 71.5675 79.1192C72.1324 78.514 72.9393 78.3257 73.8807 78.3661C74.1631 78.3795 74.4052 78.1509 74.4052 77.8685V75.9857C74.4052 75.7301 74.2034 75.5015 73.9479 75.4881Z" fill="black"/>
<path d="M80.4975 84.8483C78.9375 84.8483 77.6599 83.5034 77.6599 81.5534C77.6599 79.563 78.9375 78.1778 80.4975 78.1778C82.0576 78.1778 83.3352 79.563 83.3352 81.5534C83.3352 83.5034 82.0576 84.8483 80.4975 84.8483ZM80.4975 75.4746C77.2968 75.4746 74.7012 78.0971 74.7012 81.5399C74.7012 84.9828 77.2968 87.5649 80.4975 87.5649C83.6983 87.5649 86.3208 84.9962 86.3208 81.5399C86.3073 78.0971 83.6983 75.4746 80.4975 75.4746Z" fill="black"/>
<path d="M53.5599 75.7705H51.7309C51.4619 75.7705 51.2198 75.9319 51.1257 76.1874L48.3015 83.5304L45.4773 76.1874C45.3831 75.9319 45.1411 75.7705 44.8721 75.7705H43.0431C42.6934 75.7705 42.4513 76.1202 42.5858 76.4429L46.8087 87.4439L46.459 88.3719C46.0287 89.5016 45.41 89.9454 44.2535 89.9723C43.9845 89.9723 43.7559 90.1874 43.7559 90.4699V92.1644C43.7559 92.4334 43.971 92.6485 44.24 92.662C46.4052 92.7292 47.9653 92.2316 49.0681 89.394L54.0306 76.4429C54.1516 76.1067 53.9096 75.7705 53.5599 75.7705Z" fill="black"/>
</g>
</svg>
