<svg width="150" height="150" viewBox="0 0 150 150" fill="none" xmlns="http://www.w3.org/2000/svg">
<g style="mix-blend-mode:multiply">
<g clip-path="url(#clip0_3800_25144)">
<path fill-rule="evenodd" clip-rule="evenodd" d="M122.128 68.2541C122.701 69.2433 122.889 70.3688 122.951 71.6341L123.032 73.3206V85.1136L123.115 86.8019C123.282 89.559 125.315 91.5977 128.093 91.7711L129.773 91.8543V73.3206L129.856 71.6341C129.925 70.383 130.111 69.2362 130.693 68.2399C131.286 67.218 132.138 66.3701 133.163 65.7815C134.187 65.1928 135.349 64.884 136.53 64.8862C137.712 64.8883 138.872 65.2013 139.895 65.7937C140.917 66.3861 141.766 67.2371 142.355 68.2611C142.928 69.2504 143.107 70.3971 143.176 71.6341L143.259 73.3153V85.1136L143.343 86.8019C143.516 89.5732 145.533 91.6118 148.321 91.7711L150 91.8543V71.6341C150 68.0586 148.58 64.6295 146.052 62.1008C143.525 59.572 140.096 58.1507 136.52 58.1493C134.607 58.1473 132.715 58.5537 130.971 59.3413C129.227 60.129 127.671 61.2798 126.407 62.7168C125.143 61.2803 123.587 60.1298 121.843 59.3419C120.099 58.554 118.207 58.1469 116.293 58.1475C113.494 58.1475 110.896 58.997 108.744 60.464C107.431 58.9987 104.493 58.1475 102.807 58.1475V91.8543L104.493 91.7711C107.314 91.5853 109.353 89.6015 109.462 86.8019L109.553 85.1136V73.3206L109.636 71.6341C109.707 70.3617 109.884 69.2433 110.459 68.247C111.052 67.2257 111.904 66.378 112.928 65.7887C113.951 65.1993 115.112 64.8888 116.293 64.8882C117.476 64.8884 118.637 65.1995 119.661 65.7903C120.685 66.3811 121.536 67.2307 122.128 68.2541ZM6.74064 91.7729L8.42713 91.8543H33.7067L33.6236 90.1731C33.3953 87.4018 31.4327 85.3773 28.6526 85.1968L26.9661 85.1136H11.8001L32.0202 64.8864L31.9371 63.207C31.8061 60.4074 29.7604 58.3847 26.9661 58.2307L25.2796 58.1546L0 58.1475L0.0831741 59.834C0.304382 62.5788 2.29525 64.6457 5.05238 64.805L6.74064 64.8882H21.9066L1.68649 85.1154L1.76966 86.8019C1.93601 89.5802 3.94104 91.5923 6.74064 91.7711V91.7729ZM96.1899 63.0813C97.7552 64.6463 98.9969 66.5043 99.844 68.5491C100.691 70.594 101.127 72.7857 101.127 74.9991C101.127 77.2125 100.691 79.4043 99.844 81.4491C98.9969 83.494 97.7552 85.352 96.1899 86.9169C93.0275 90.0767 88.74 91.8517 84.2695 91.8517C79.799 91.8517 75.5114 90.0767 72.3491 86.9169C65.7677 80.3355 65.7677 69.6627 72.3491 63.0813C73.9129 61.5169 75.7696 60.2759 77.8131 59.429C79.8566 58.5821 82.0469 58.1461 84.2589 58.1458C86.4745 58.1442 88.6687 58.5795 90.7159 59.4267C92.7632 60.2739 94.6233 61.5164 96.1899 63.0831V63.0813ZM91.4207 67.8541C93.3164 69.7512 94.3812 72.3234 94.3812 75.0053C94.3812 77.6872 93.3164 80.2594 91.4207 82.1565C89.5236 84.0522 86.9514 85.1171 84.2695 85.1171C81.5876 85.1171 79.0154 84.0522 77.1183 82.1565C75.2226 80.2594 74.1577 77.6872 74.1577 75.0053C74.1577 72.3234 75.2226 69.7512 77.1183 67.8541C79.0154 65.9584 81.5876 64.8936 84.2695 64.8936C86.9514 64.8936 89.5236 65.9584 91.4207 67.8541ZM48.8869 58.1458C51.099 58.1463 53.2894 58.5827 55.3329 59.4298C57.3764 60.277 59.233 61.5184 60.7967 63.0831C67.3798 69.6627 67.3798 80.3373 60.7967 86.9169C57.6343 90.0767 53.3467 91.8517 48.8763 91.8517C44.4058 91.8517 40.1182 90.0767 36.9558 86.9169C30.3745 80.3355 30.3745 69.6627 36.9558 63.0813C38.5197 61.5169 40.3764 60.2759 42.4198 59.429C44.4633 58.5821 46.6536 58.1461 48.8656 58.1458H48.8869ZM56.0275 67.8506C57.9237 69.7478 58.9889 72.3203 58.9889 75.0027C58.9889 77.685 57.9237 80.2576 56.0275 82.1547C54.1304 84.0504 51.5582 85.1153 48.8763 85.1153C46.1944 85.1153 43.6222 84.0504 41.7251 82.1547C39.8294 80.2576 38.7645 77.6855 38.7645 75.0035C38.7645 72.3216 39.8294 69.7495 41.7251 67.8523C43.6222 65.9567 46.1944 64.8918 48.8763 64.8918C51.5582 64.8918 54.1304 65.9567 56.0275 67.8523V67.8506Z" fill="black"/>
</g>
</g>
<defs>
<clipPath id="clip0_3800_25144">
<rect width="150" height="33.7085" fill="white" transform="translate(0 58.1458)"/>
</clipPath>
</defs>
</svg>
